<?xml version="1.0" encoding="UTF-8" standalone="no"?>
<!-- Created with Inkscape (http://www.inkscape.org/) -->

<svg
   width="136.52501mm"
   height="134.40836mm"
   viewBox="0 0 136.52501 134.40836"
   version="1.1"
   id="svg1"
   xml:space="preserve"
   xmlns="http://www.w3.org/2000/svg"
   xmlns:svg="http://www.w3.org/2000/svg"><defs
     id="defs1" /><g
     id="layer1"
     transform="translate(-39.363944,-55.259635)"><g
       id="g18121"
       transform="translate(1.0709138,-21.77524)"><path
         style="fill:#7f8287;stroke:none"
         d="m 118.72636,177.22377 v 0.35277 h 1.76389 l -1.76389,-0.35277 m 25.98796,0.11758 0.23519,0.11761 -0.23519,-0.11761 m 11.75926,-0.11758 0.70556,0.70555 -0.70556,-0.70555 m -89.017588,0.47036 0.235181,0.11761 -0.235181,-0.11761 m 24.459257,-0.11759 0.352778,0.35278 -0.352778,-0.35278 m 14.816671,0 0.35277,0.35278 -0.35277,-0.35278 m 39.39351,0.11759 0.23519,0.11761 -0.23519,-0.11761 m -89.840736,0.23519 -0.352778,0.70556 0.352778,-0.70556 m 4.938889,0 0.352777,0.35278 -0.352777,-0.35278 m 4.586111,0 v 0.35278 h 1.058333 l -1.058333,-0.35278 m 22.812965,0.11759 0.235181,0.1176 -0.235181,-0.1176 m 6.820368,-0.11759 v 3.88056 h 0.352778 l -0.352778,-3.88056 m 51.505553,0 v 0.35278 h 1.05834 l -1.05834,-0.35278 m -81.962033,0.47036 0.235182,0.11761 -0.235182,-0.11761 M 86.97636,178.2821 v 0.35278 h 1.058334 L 86.97636,178.2821 m 12.347223,0 0.352778,0.35278 -0.352778,-0.35278 m 4.233337,0 0.35277,0.35278 -0.35277,-0.35278 m 44.80277,0 v 0.35278 h 1.05834 l -1.05834,-0.35278 m 8.81945,0 0.70555,1.41111 h 0.35278 l -1.05833,-1.41111 m -93.838891,0.35278 v 0.35277 h 1.058334 l -1.058334,-0.35277 m 22.225,1.05833 h 0.352778 l 0.705556,-0.70556 c -0.754837,-0.39431 -0.891381,-0.0885 -1.058334,0.70556 m 6.702778,-1.05833 v 1.76389 h 0.352778 l -0.352778,-1.76389 m 13.758333,0 0.35278,0.35277 -0.35278,-0.35277 m 4.93889,0 0.35278,0.35277 -0.35278,-0.35277 m 2.82222,0 -0.35278,0.70555 0.35278,-0.70555 m 21.16667,0 0.35278,0.35277 -0.35278,-0.35277 m 14.81667,0 v 0.35277 h 1.05833 l -1.05833,-0.35277 m -94.191672,0.35277 0.352778,0.35278 -0.352778,-0.35278 m 4.938889,0 0.352778,0.35278 -0.352778,-0.35278 m 1.999076,0.11759 0.235182,0.11761 -0.235182,-0.11761 m 14.463889,0 0.235181,0.11761 -0.235181,-0.11761 m 59.266658,0 0.2352,0.11761 -0.2352,-0.11761 m 15.16945,0 0.23519,0.11761 -0.23519,-0.11761 m -89.84074,0.23519 0.352778,0.35278 -0.352778,-0.35278 m 14.346299,0.11759 0.235181,0.11761 -0.235181,-0.11761 m 22.695368,-0.11759 -0.352778,0.70556 0.352778,-0.70556 m 11.994443,0 0.35278,0.35278 -0.35278,-0.35278 m 26.69352,0.11759 0.23519,0.11761 -0.23519,-0.11761 m -82.07963,0.23519 -0.352777,0.70556 0.352777,-0.70556 m 19.05,0 v 0.35278 h 1.058334 l -1.058334,-0.35278 m 15.522223,0 v 1.76389 h 0.352778 l -0.352778,-1.76389 m 23.283337,0 0.35277,0.35278 -0.35277,-0.35278 m 25.04722,0 v 0.35278 h 1.05833 l -1.05833,-0.35278 m -64.675926,0.47036 0.235182,0.11761 -0.235182,-0.11761 m 27.987036,-0.11758 0.70556,0.70555 -0.70556,-0.70555 m 8.81944,0 -0.35277,0.70555 0.35277,-0.70555 m 29.28056,0 v 0.35278 h 1.05833 l -1.05833,-0.35278 m 18.69722,0 0.35278,0.35278 -0.35278,-0.35278 m -86.430554,0.35278 v 0.35277 h 1.058333 l -1.058333,-0.35277 m 40.922224,0 0.35278,0.35277 -0.35278,-0.35277 m 14.46389,0 v 3.175 h 0.35278 l -0.35278,-3.175 m 13.99351,0.11758 0.23519,0.11761 -0.23519,-0.11761 m -86.665735,0.23519 0.352778,0.35278 -0.352778,-0.35278 m 15.875,0 v 0.35278 h 1.058333 l -1.058333,-0.35278 m 15.522222,0 v 3.175 h 0.352778 l -0.352778,-3.175 m 29.633333,0 0.35278,0.35278 -0.35278,-0.35278 m 26.45833,0 v 0.35278 h 1.05834 l -1.05834,-0.35278 m -72.437031,0.47037 0.235181,0.1176 -0.235181,-0.1176 m 23.048146,-0.11759 v 1.05833 h 0.352778 l -0.352778,-1.05833 m 11.641665,0 0.35278,0.35278 -0.35278,-0.35278 m 5.29167,0 0.35278,0.35278 -0.35278,-0.35278 m 33.86667,0 v 0.35278 h 1.05833 l -1.05833,-0.35278 m 15.52222,0 0.35278,0.35278 -0.35278,-0.35278 m -90.781483,0.47036 0.235182,0.11761 -0.235182,-0.11761 m 32.925923,-0.11758 0.35278,0.35278 -0.35278,-0.35278 m 43.74445,0 v 0.35278 h 1.05833 l -1.05833,-0.35278 m -78.081484,0.47036 0.235182,0.11761 -0.235182,-0.11761 m 49.506484,-0.11758 0.35277,0.35277 -0.35277,-0.35277 m 30.22129,0.11758 0.23519,0.11761 -0.23519,-0.11761 m -81.138885,0.35278 0.235182,0.11761 -0.235182,-0.11761 m 38.217595,-0.11759 0.35277,0.35278 -0.35277,-0.35278 m 44.3324,0.11759 0.23519,0.11761 -0.23519,-0.11761 m -83.843515,0.23519 0.352778,0.35278 -0.352778,-0.35278 m 36.336115,0 0.35277,0.35278 -0.35277,-0.35278 m 48.68333,0 0.35278,0.35278 -0.35278,-0.35278 m -86.195369,0.47037 0.235181,0.1176 -0.235181,-0.1176 m 40.334259,-0.11759 -0.35278,0.70556 0.35278,-0.70556 m 47.15462,0.11759 0.2352,0.1176 -0.2352,-0.1176 m -57.385177,0.23519 0.352778,0.35278 -0.352778,-0.35278 m 29.986107,0 0.35278,0.35278 -0.35278,-0.35278 m 28.575,0 0.35278,0.35278 -0.35278,-0.35278 m -61.383329,0.35278 0.352777,0.35277 -0.352777,-0.35277 m -31.044445,0.35277 0.352778,0.35278 -0.352778,-0.35278 m 40.216667,0 0.352778,0.35278 -0.352778,-0.35278 m 3.174997,0 -0.35277,0.70556 0.35277,-0.70556 m 7.40834,0.35278 0.35277,0.35278 -0.35277,-0.35278 m 16.93333,0 v 1.41111 h 0.35278 l -0.35278,-1.41111 m -70.202779,0.35278 0.352778,0.35278 -0.352778,-0.35278 m 29.633334,0 v 2.82222 h 0.352778 l -0.352778,-2.82222 m 20.813885,0 -0.35277,0.70556 0.35277,-0.70556 m 3.52778,0 0.70556,0.70556 -0.70556,-0.70556 m 46.21389,0 0.35278,0.35278 -0.35278,-0.35278 m -105.127777,0.35278 -0.352778,0.70555 0.352778,-0.70555 m 3.527777,0 v 0.35278 h 1.058334 l -1.058334,-0.35278 m 43.391667,0 -0.352778,0.70555 0.352778,-0.70555 m 3.175003,0 -0.35278,0.70555 0.35278,-0.70555 m 7.76111,0 -0.35278,0.70555 0.35278,-0.70555 m 4.58611,0 0.70556,0.70555 -0.70556,-0.70555 m 43.39167,0 v 0.35278 h 1.05833 l -1.05833,-0.35278 m -103.716671,0.35278 v 0.35277 h 1.058334 l -1.058334,-0.35277 m 105.127781,0 v 0.35277 h 1.05833 l -1.05833,-0.35277 m 2.82222,0 0.35278,0.35277 -0.35278,-0.35277 m -108.77315,0.47036 0.235187,0.11761 -0.235187,-0.11761 m 40.334261,-0.11759 0.352777,0.35278 -0.352777,-0.35278 m 13.052779,0 -0.35278,0.70556 0.35278,-0.70556 m 4.93889,0 0.35278,0.35278 -0.35278,-0.35278 m 49.03611,0 v 0.35278 l 2.11667,0.35278 v -0.35278 l -2.11667,-0.35278 m -109.361113,0.35278 v 0.35278 h 1.411111 l -1.411111,-0.35278 m 46.919445,0 0.352777,0.35278 -0.352777,-0.35278 m 3.174998,0 0.35278,0.35278 -0.35278,-0.35278 m 7.76111,0 0.35278,0.35278 -0.35278,-0.35278 m 10.93611,0 0.35278,0.35278 -0.35278,-0.35278 m -4.58611,0.35278 1.05834,1.05833 -1.05834,-1.05833 m -9.525,0.35278 -0.35277,0.70555 0.35277,-0.70555 m 2.82223,0 0.35277,0.35277 -0.35277,-0.35277 m 3.52777,0 0.35278,0.35277 -0.35278,-0.35277 m -21.401851,0.94074 0.117596,0.23517 -0.117596,-0.23517 m 14.346301,0.11759 -0.35278,0.70556 0.35278,-0.70556 m 2.82222,0 0.35278,0.35278 -0.35278,-0.35278 m 5.29167,0.35278 0.35277,0.35278 -0.35277,-0.35278 m -26.458337,0.35278 v 3.175 h 0.352777 l -0.352777,-3.175 m 39.863887,0 0.35278,0.35277 -0.35278,-0.35277 m -22.225,0.35277 0.35278,0.35278 -0.35278,-0.35278 m 4.23334,0 0.35277,0.35278 -0.35277,-0.35278 m -13.052783,0.35278 0.352778,0.35278 -0.352778,-0.35278 m 3.175,0.35278 -0.352778,0.70555 0.352778,-0.70555 m 19.050003,0 0.35278,0.35278 -0.35278,-0.35278 m -14.11111,0.35278 0.35277,0.35277 -0.35277,-0.35277 m -8.819448,0.35277 0.352777,0.35278 -0.352777,-0.35278 m 14.816668,0 0.35278,0.35278 -0.35278,-0.35278 m -11.641668,0.35278 -0.352778,0.70556 0.352778,-0.70556 m 20.461108,0 0.35278,0.35278 -0.35278,-0.35278 m -23.988886,0.35278 -0.705556,1.41111 h 0.352778 l 0.352778,-1.41111 m 15.522226,0 0.35277,0.35278 -0.35277,-0.35278 m 9.525,0 -0.35278,1.05833 0.35278,-1.05833 m -28.575004,0.70556 0.352778,0.35277 -0.352778,-0.35277 m 6.35,0 0.352778,0.35277 -0.352778,-0.35277 m 18.697224,0.35277 0.35278,0.35278 -0.35278,-0.35278 m -28.92778,0.35278 v 1.05833 h 0.352778 l -0.352778,-1.05833 m 14.81667,0 0.35278,0.35278 -0.35278,-0.35278 m -5.291669,0.35278 0.352777,0.35278 -0.352777,-0.35278 m 29.633329,0 0.35278,0.35278 -0.35278,-0.35278 m -9.525,0.35278 0.35278,0.35277 -0.35278,-0.35277 m -20.813885,0.70555 0.352778,0.35278 -0.352778,-0.35278 m 21.519445,0.35278 0.35278,0.35278 -0.35278,-0.35278 m -22.225001,0.70556 0.352778,0.35277 -0.352778,-0.35277 m 26.811111,0 v 1.05833 h 0.35278 l -0.35278,-1.05833 m -8.81944,0.35277 0.35277,0.35278 -0.35277,-0.35278 m 4.93889,0 0.70555,0.70556 -0.70555,-0.70556 m -18.344449,0.35278 0.352779,0.35278 -0.352779,-0.35278 m 14.111109,0.70556 0.35278,0.35277 -0.35278,-0.35277 m 4.93889,0 0.70556,0.70555 -0.70556,-0.70555 m -27.516666,0.35277 0.352778,0.35278 -0.352778,-0.35278 m 7.761111,0 0.352778,0.35278 -0.352778,-0.35278 m -11.641667,0.35278 0.352778,0.35278 -0.352778,-0.35278 m 26.811112,0 1.05833,1.05834 -1.05833,-1.05834 m -15.522223,0.35278 -0.352778,0.70556 0.352778,-0.70556 m 22.930553,0 v 1.76389 h 0.35278 l -0.35278,-1.76389 m -1.76389,0.35278 0.35278,0.35278 -0.35278,-0.35278 m -21.872218,0.70555 0.352777,0.35278 -0.352777,-0.35278 m 17.286108,0 0.70556,0.70556 -0.70556,-0.70556 m 5.29167,0.35278 0.35278,0.35278 -0.35278,-0.35278 m -4.58611,0.70556 0.70555,0.70555 -0.70555,-0.70555 m 9.64259,0.58796 0.11759,0.23519 -0.11759,-0.23519 m -37.864814,1.17593 0.352778,0.35277 -0.352778,-0.35277 m 7.408333,1.05833 -0.352777,0.70555 0.352777,-0.70555 m 22.930561,0 0.35277,0.35278 -0.35277,-0.35278 m 7.05555,0.35278 0.35278,0.35277 -0.35278,-0.35277 m -30.691666,0.70555 -0.352778,0.70556 0.352778,-0.70556 m 24.341666,0 0.70556,0.70556 -0.70556,-0.70556 m 6.35,0 0.35278,0.35278 -0.35278,-0.35278 m -5.64444,1.05834 0.70555,0.70555 -0.70555,-0.70555 m -26.105559,0.35277 -0.352778,0.70556 0.352778,-0.70556 m 26.811109,0.70556 0.70556,0.70555 -0.70556,-0.70555 m 4.58611,0 v 1.76389 h 0.35278 l -0.35278,-1.76389 m -32.102775,0.35278 0.352778,0.35277 -0.352778,-0.35277 m -0.705556,1.05833 0.352778,0.35278 -0.352778,-0.35278 m 29.280561,0 0.35277,0.35278 -0.35277,-0.35278 m 0.70555,1.05833 0.35278,0.35278 -0.35278,-0.35278 m 2.46945,0.35278 v 2.11667 h 0.35277 l -0.35277,-2.11667 m -34.572227,1.41111 0.352778,0.35278 -0.352778,-0.35278 m -1.058334,1.41111 0.352778,0.35278 z"
         id="path18161" /><path
         style="fill:#032136;stroke:none"
         d="m 118.02081,177.22377 -0.70556,5.64444 -3.52778,-3.88056 c -2.85724,4.67944 2.65098,8.78623 5.29167,12.70001 l 0.76544,-4.58612 1.35123,-9.525 z"
         id="path18160" /><path
         style="fill:#7f8287;stroke:none"
         d="m 143.30321,176.98857 0.23519,0.11761 -0.23519,-0.11761 m 7.87871,-0.11758 0.35277,0.35278 -0.35277,-0.35278 m -82.902782,0.35278 v 0.35277 h 1.058334 l -1.058334,-0.35277 m 24.341667,0 v 0.35277 h 1.058333 l -1.058333,-0.35277 m 11.641665,0 0.35278,0.35277 -0.35278,-0.35277 m 13.40556,0 0.35278,0.35277 z"
         id="path18159" /><path
         style="fill:#032136;stroke:none"
         d="m 92.268027,177.57654 1.411111,14.11112 c 2.676366,-2.21051 10.429792,-10.79276 5.644445,-13.05278 l -3.527778,3.52777 -0.705556,-5.29166 z"
         id="path18158" /><path
         style="fill:#7f8287;stroke:none"
         d="m 61.929138,169.10988 0.352778,0.35277 -0.352778,-0.35277 m 20.461111,0 -1.058333,1.41111 v 0.35278 c 1.00544,-0.33063 1.405185,-0.70966 1.058333,-1.76389 m 4.586111,0 v 0.35277 h 1.411112 l -1.411112,-0.35277 m 12.347223,0 0.352778,0.35277 -0.352778,-0.35277 m -28.927778,0.35277 0.352778,0.35278 -0.352778,-0.35278 m 15.169444,0 v 0.35278 h 1.058334 l -1.058334,-0.35278 m 65.969441,0 0.35278,0.35278 -0.35278,-0.35278 m -57.620365,0.47037 0.235182,0.11761 -0.235182,-0.11761 m 26.223145,-0.11759 0.35278,0.35278 -0.35278,-0.35278 m -58.913887,0.35278 0.352777,0.35278 -0.352777,-0.35278 m 31.279631,0.11759 0.235182,0.1176 -0.235182,-0.1176 m 29.045366,-0.11759 c -1.6e-4,1.47897 0.29093,3.00581 -1.05833,3.88056 v 0.35277 h 1.41111 l -0.35278,-4.23333 m 2.46945,0 v 1.76389 h 0.35278 l -0.35278,-1.76389 m 6.35,0 0.35278,0.35278 -0.35278,-0.35278 m 21.51944,0 0.35278,0.35278 -0.35278,-0.35278 m -60.677776,0.35278 0.352778,0.35278 -0.352778,-0.35278 m 40.451846,0.11758 0.23519,0.11761 -0.23519,-0.11761 m -65.851846,0.2352 0.352778,0.35277 -0.352778,-0.35277 m 14.699076,0.11758 0.235181,0.11761 -0.235181,-0.11761 m 9.525,0 0.235181,0.11761 -0.235181,-0.11761 m 43.03888,0 0.2352,0.11761 -0.2352,-0.11761 m -72.554623,0.23519 0.352778,0.35278 -0.352778,-0.35278 m 8.819445,0 -1.058334,1.76389 1.058334,-1.76389 m 9.760187,0.11759 0.235181,0.11761 -0.235181,-0.11761 m 9.877777,0 0.235182,0.11761 -0.235182,-0.11761 m 38.923144,-0.11759 v 3.52778 h 0.35278 l -0.35278,-3.52778 m 6.58518,0.11759 0.2352,0.11761 -0.2352,-0.11761 m 18.10927,-0.11759 0.35278,0.35278 -0.35278,-0.35278 m -74.788892,0.35278 0.352778,0.35278 -0.352778,-0.35278 m 9.760187,0.11759 0.235182,0.1176 -0.235182,-0.1176 m 14.228705,-0.11759 0.35278,0.35278 -0.35278,-0.35278 m 33.86666,0 0.35278,0.35278 -0.35278,-0.35278 m 8.81945,0 0.70555,1.41111 h 0.35278 l -1.05833,-1.41111 m -79.375002,0.35278 0.352778,0.35278 -0.352778,-0.35278 m 21.049076,0.11758 0.235182,0.11761 -0.235182,-0.11761 m -1.646298,0.2352 v 0.35277 h 1.058333 l -1.058333,-0.35277 m 68.791664,0 0.35278,0.35277 -0.35278,-0.35277 m -69.61481,0.47036 0.235181,0.11761 -0.235181,-0.11761 m 26.9287,-0.11759 -1.05833,1.41112 1.05833,-1.41112 m 29.63334,0 0.35277,0.35278 -0.35277,-0.35278 m -75.847227,0.35278 0.352777,0.35278 -0.352777,-0.35278 m 18.226853,0.11759 0.235182,0.11761 -0.235182,-0.11761 m 12.817591,-0.11759 0.352778,0.35278 -0.352778,-0.35278 m 19.755553,0 0.35278,0.35278 -0.35278,-0.35278 m 0.70556,0 0.35278,0.35278 -0.35278,-0.35278 m 25.4,0 0.35278,0.35278 -0.35278,-0.35278 m 7.40833,0 0.35278,0.35278 -0.35278,-0.35278 m 4.93889,0 0.70556,0.70556 -0.70556,-0.70556 m -85.725,0.35278 -0.352777,0.70556 0.352777,-0.70556 m 3.762965,0.11759 0.235182,0.1176 -0.235182,-0.1176 m 9.289813,-0.11759 v 0.35278 h 1.058334 l -1.058334,-0.35278 m 13.758334,0 0.352777,0.35278 -0.352777,-0.35278 m 2.822222,0 1.058333,1.05833 -1.058333,-1.05833 m 6.349996,0 0.35278,0.35278 -0.35278,-0.35278 m 13.05278,0 v 0.35278 h 1.41111 l -1.41111,-0.35278 m 13.75834,0 v 0.35278 h 1.05833 l -1.05833,-0.35278 m 11.52407,0.11759 0.23519,0.1176 -0.23519,-0.1176 m 3.29259,-0.11759 0.70556,0.70556 -0.70556,-0.70556 m -81.491665,0.35278 -0.705556,1.41111 h 0.352778 l 0.352778,-1.41111 m 6.585187,0.11758 0.235181,0.11761 -0.235181,-0.11761 m 9.525,0 0.235181,0.11761 -0.235181,-0.11761 m 13.758333,0 0.235182,0.11761 -0.235182,-0.11761 m 24.812035,-0.11758 v 0.35278 h 1.41111 l -1.41111,-0.35278 m 5.05649,0.23519 0.11758,0.23517 -0.11758,-0.23517 m 8.34907,-0.23519 v 0.35278 h 1.05833 l -1.05833,-0.35278 m 11.17129,0.11758 0.23519,0.11761 -0.23519,-0.11761 m 5.76204,-0.11758 0.70556,0.70555 -0.70556,-0.70555 m -79.845369,0.47036 0.235181,0.11761 -0.235181,-0.11761 m 9.995368,-0.11758 0.352778,0.35277 -0.352778,-0.35277 m 13.640743,0.11758 0.235182,0.11761 -0.235182,-0.11761 m 37.159258,-0.11758 v 2.46944 h 0.35278 l -0.35278,-2.46944 m 3.52778,0 0.35278,0.35277 -0.35278,-0.35277 m 10.81851,0.11758 0.23519,0.11761 -0.23519,-0.11761 m 9.99538,-0.11758 0.35277,0.35277 -0.35277,-0.35277 m -86.195373,0.47036 0.235182,0.11761 -0.235182,-0.11761 m 9.995369,-0.11759 0.352778,0.35278 -0.352778,-0.35278 m 13.640743,0.11759 0.235181,0.11761 -0.235181,-0.11761 m 42.803701,-0.11759 0.35278,0.35278 -0.35278,-0.35278 m 10.58333,0 v 0.35278 h 1.41112 l -1.41112,-0.35278 m -78.316663,0.35278 0.352778,0.35278 -0.352778,-0.35278 m 23.871298,0.11759 0.235182,0.1176 -0.235182,-0.1176 m 59.031485,-0.11759 0.70555,0.70556 -0.70555,-0.70556 m -91.722227,0.35278 0.352777,0.35278 -0.352777,-0.35278 m 31.632409,0.11758 0.235182,0.11761 -0.235182,-0.11761 m 18.814818,-0.11758 0.35277,0.35278 -0.35277,-0.35278 m -45.508338,0.35278 -0.352778,0.70555 0.352778,-0.70555 m 25.282409,0.11758 0.235181,0.11761 -0.235181,-0.11761 m 50.212039,-0.11758 0.35277,0.35277 -0.35277,-0.35277 m -65.263893,0.35277 0.352778,0.35278 -0.352778,-0.35278 m 13.99352,0.11759 0.235182,0.11761 -0.235182,-0.11761 m 18.109263,-0.11759 -0.35278,0.70556 0.35278,-0.70556 m 34.21944,0 0.35278,0.35278 -0.35278,-0.35278 m 10.93611,0 0.70556,0.70556 -0.70556,-0.70556 m -93.133333,0.35278 0.352778,0.35278 -0.352778,-0.35278 m 14.816667,0 0.352778,0.35278 -0.352778,-0.35278 m 13.99352,0.11759 0.235182,0.11761 -0.235182,-0.11761 m 41.392596,-0.11759 v 3.52778 h 0.35277 l -0.35277,-3.52778 m 13.28795,0.11759 0.2352,0.11761 -0.2352,-0.11761 m 14.93427,-0.11759 0.70555,0.70556 -0.70555,-0.70556 m -84.78426,0.47037 0.235181,0.1176 -0.235181,-0.1176 m 13.875924,-0.11759 0.352778,0.35278 -0.352778,-0.35278 m 10.348146,0.23519 0.117596,0.23517 -0.117596,-0.23517 m 12.22963,-0.23519 0.35278,0.35278 -0.35278,-0.35278 m 34.57222,0 0.35278,0.35278 -0.35278,-0.35278 m -85.019441,0.35278 -0.352778,0.70555 0.352778,-0.70555 m 4.938889,0 0.352778,0.35278 -0.352778,-0.35278 m 7.996298,0.11758 0.235182,0.11761 -0.235182,-0.11761 m 13.875924,-0.11758 0.352778,0.35278 -0.352778,-0.35278 m 10.465743,0.11758 0.235182,0.11761 z"
         id="path18157" /><path
         style="fill:#032136;stroke:none"
         d="m 91.915249,199.44877 c -1.611088,-6.53971 -2.112209,-14.78071 -2.116666,-21.51945 l -3.653809,1.56273 0.730871,9.72616 1.511827,21.87222 c 2.812549,-1.42825 4.46437,-5.25484 6.247379,-7.76111 5.033306,-7.075 9.883499,-14.28685 14.683839,-21.51944 1.56879,-2.36367 3.5521,-7.20726 6.29283,-8.35589 1.63338,-0.68453 4.2229,0.45836 5.93706,0.59478 v -3.88056 c -2.07701,-0.26823 -5.38625,-1.73975 -7.39444,-0.94755 -2.75443,1.0866 -5.55451,5.97892 -7.18976,8.35588 -4.96247,7.21339 -9.364411,15.20249 -15.049131,21.87223 z"
         id="path18156" /><path
         style="fill:#7f8287;stroke:none"
         d="m 140.59858,160.64321 0.35278,0.35278 -0.35278,-0.35278 m -63.14722,0.35278 0.352778,0.35278 -0.352778,-0.35278 m 58.20833,0 0.35278,0.35278 -0.35278,-0.35278 m 10.23056,0 0.70556,0.70555 -0.70556,-0.70555 m -79.022223,0.35278 -0.352778,0.70555 0.352778,-0.70555 m 4.938889,0 0.352778,0.35277 -0.352778,-0.35277 m 6.585187,0.11758 0.235182,0.11761 -0.235182,-0.11761 m 5.409257,-0.11758 v 1.41111 h 0.352778 l -0.352778,-1.41111 m 41.62778,0 v 1.41111 h 0.35278 l -0.35278,-1.41111 m 4.23333,0 0.35278,0.35277 -0.35278,-0.35277 m 5.29167,0 0.35278,0.35277 -0.35278,-0.35277 m -59.972224,0.35277 -0.352778,0.70556 0.352778,-0.70556 m 4.233333,0 0.352778,0.35278 -0.352778,-0.35278 m 49.741671,0 -0.35278,2.46945 h 0.35278 v -2.46945 m 5.29166,0 0.35278,0.35278 -0.35278,-0.35278 m 3.88056,0 0.35278,0.35278 -0.35278,-0.35278 m 3.175,0 0.35278,0.35278 -0.35278,-0.35278 m -69.850002,0.35278 -0.352778,0.70556 0.352778,-0.70556 m 16.580556,0 v 1.76389 h 0.352778 l -0.352778,-1.76389 m 58.561116,0 0.35277,0.35278 -0.35277,-0.35278 m -80.433338,0.35278 0.352777,0.35278 -0.352777,-0.35278 m 8.113888,0.35278 0.352778,0.35277 -0.352778,-0.35277 m 64.55833,0 0.35278,0.35277 -0.35278,-0.35277 m 3.175,0 0.70556,0.70555 -0.70556,-0.70555 m -71.261107,0.35277 -0.352778,0.70556 0.352778,-0.70556 m 54.327777,0 v 1.41112 h 0.35278 l -0.35278,-1.41112 m 22.225,0 0.35278,0.35278 -0.35278,-0.35278 m -73.377777,0.35278 0.352777,0.35278 -0.352777,-0.35278 m 10.230555,0 v 1.41111 h 0.352778 l -0.352778,-1.41111 m 55.033332,0 0.35278,0.35278 -0.35278,-0.35278 m 3.52778,0.35278 0.70556,0.70556 -0.70556,-0.70556 m -72.672223,0.35278 0.352778,0.35278 -0.352778,-0.35278 m 3.175,0.35278 0.352778,0.35277 -0.352778,-0.35277 m 15.169445,0 v 1.41111 h 0.352777 l -0.352777,-1.41111 m 51.505558,0 0.35278,0.35277 -0.35278,-0.35277 m -70.202781,0.35277 -0.352777,0.70556 0.352777,-0.70556 m 55.033331,0 v 1.41111 h 0.35278 l -0.35278,-1.41111 m 18.69723,0 0.35277,0.35278 -0.35277,-0.35278 m -70.555561,0.35278 0.352778,0.35278 -0.352778,-0.35278 m 67.380561,0 0.70555,0.70556 -0.70555,-0.70556 m -63.147227,0.35278 0.352777,0.35278 -0.352777,-0.35278 m -8.113889,0.35278 0.352778,0.35277 -0.352778,-0.35277 m 3.527778,0 -0.352778,0.70555 0.352778,-0.70555 m 11.994444,0 v 1.41111 h 0.352778 l -0.352778,-1.41111 m 59.619444,0 0.35278,0.35277 -0.35278,-0.35277 m -80.433333,0.35277 -0.352778,0.70556 0.352778,-0.70556 m 25.047222,0 v 1.41112 h 0.352778 l -0.352778,-1.41112 m 52.211111,0 0.70556,0.70556 -0.70556,-0.70556 m -12.7,0.35278 v 3.52778 h 0.35278 l -0.35278,-3.52778 m 2.46945,0 v 2.46945 h 0.35277 l 0.35278,-2.46945 h -0.70555 m 13.75833,0 0.35278,0.35278 -0.35278,-0.35278 m -76.200002,0.35278 0.352778,0.35278 -0.352778,-0.35278 m 3.527778,0 0.352778,0.35278 -0.352778,-0.35278 m 8.466667,0 v 0.35278 h 1.411111 l -1.411111,-0.35278 m 1.763889,0 v 1.41111 h 0.352777 l -0.352777,-1.41111 m 50.094448,0 v 0.35278 h 1.41111 l -1.41111,-0.35278 m 5.29166,0 0.35278,0.35278 -0.35278,-0.35278 m -74.436108,0.35278 -0.352778,0.70555 0.352778,-0.70555 m 13.052777,0 0.352778,0.35278 -0.352778,-0.35278 m 2.822223,0 v 0.35278 h 1.058333 l -1.058333,-0.35278 m 45.508338,0 v 1.41111 h 0.35277 l -0.35277,-1.41111 m 9.76018,0.11758 0.23519,0.11761 -0.23519,-0.11761 m 7.52593,-0.11758 0.70555,0.70555 -0.70555,-0.70555 m 3.175,0 0.70555,0.70555 -0.70555,-0.70555 m 5.29166,0 0.70556,0.70555 -0.70556,-0.70555 m -78.669442,0.35278 0.352778,0.35277 -0.352778,-0.35277 m 5.997222,0.70555 1.058334,-0.35278 -1.058334,0.35278 m 57.73796,-0.58797 0.23519,0.11761 -0.23519,-0.11761 m -59.501848,0.23519 0.352777,0.35278 -0.352777,-0.35278 m 9.172222,0 v 1.76389 h 0.352778 l -0.352778,-1.76389 m 51.152776,0 0.35278,0.35278 -0.35278,-0.35278 m -73.730554,0.35278 0.352778,0.35278 -0.352778,-0.35278 m 14.463889,0 0.352778,0.35278 -0.352778,-0.35278 m 65.616665,0 0.35278,0.35278 -0.35278,-0.35278 m 8.46667,0 0.35278,0.35278 -0.35278,-0.35278 m -61.853704,0.47036 0.235182,0.11761 -0.235182,-0.11761 m 24.812034,-0.11758 0.35278,0.35278 z"
         id="path18155" /><path
         style="fill:#032136;stroke:none"
         d="m 133.89581,162.05432 4.58611,6.35 -7.40834,-1.41111 -0.35277,3.52778 15.52222,3.88055 -8.46667,-13.75833 z"
         id="path18154" /><path
         style="fill:#7f8287;stroke:none"
         d="m 76.393027,160.29043 0.705556,0.70556 -0.705556,-0.70556 m 5.644445,0 0.352777,0.35278 -0.352777,-0.35278 m 5.644444,0 v 1.41111 h 0.352778 l -0.352778,-1.41111 m 49.388894,0 0.35277,0.35278 -0.35277,-0.35278 m -64.911116,0.35278 0.352778,0.35278 -0.352778,-0.35278 m 64.205556,0 0.35278,0.35278 z"
         id="path18153" /><path
         style="fill:#032136;stroke:none"
         d="m 76.040249,160.29043 -8.819444,14.46389 15.169444,-4.23333 -0.352777,-3.52778 -5.997223,2.11667 3.880556,-7.05556 z"
         id="path18152" /><path
         style="fill:#7f8287;stroke:none"
         d="m 135.30692,157.11543 0.35277,0.35278 -0.35277,-0.35278 m -59.737039,0.47037 0.235181,0.1176 -0.235181,-0.1176 m -6.585187,0.23519 0.352778,0.35278 -0.352778,-0.35278 m 7.408333,0 0.352778,0.35278 -0.352778,-0.35278 m 62.088893,0 0.70555,0.70555 -0.70555,-0.70555 m 5.29166,0 0.35278,0.35278 -0.35278,-0.35278 m -66.674997,0.35278 0.352777,0.35277 -0.352777,-0.35277 m 9.172222,0 0.352778,0.35277 -0.352778,-0.35277 m -17.638889,0.35277 0.352778,0.35278 -0.352778,-0.35278 m 9.525,0 0.352778,0.35278 -0.352778,-0.35278 m 8.819444,0 0.352778,1.41111 h 0.352778 l -0.705556,-1.41111 m 39.86389,0 0.35278,0.35278 -0.35278,-0.35278 m 8.11389,0 0.35278,0.35278 -0.35278,-0.35278 m -56.091668,0.35278 0.352777,0.35278 -0.352777,-0.35278 m 47.389818,0.23519 0.11759,0.23517 -0.11759,-0.23517 m 7.99629,-0.23519 0.35278,0.35278 -0.35278,-0.35278 m 10.23056,0 0.70555,0.70556 -0.70555,-0.70556 m -76.200002,0.35278 -0.352778,0.70555 0.352778,-0.70555 m 11.288889,0 0.352778,0.35278 -0.352778,-0.35278 m 53.975003,0 0.35278,0.35278 -0.35278,-0.35278 m 5.99722,0 0.35278,0.35278 -0.35278,-0.35278 m -59.266667,0.35278 0.352777,0.35277 -0.352777,-0.35277 m 52.563887,0 0.35278,0.35277 -0.35278,-0.35277 m -7.05555,0.35277 v 1.05834 h 0.35277 l -0.35277,-1.05834 m 19.40277,0 0.70556,0.70556 -0.70556,-0.70556 m -77.611107,0.35278 -0.352778,0.70556 z"
         id="path18151" /><path
         style="fill:#032136;stroke:none"
         d="m 69.690249,157.11543 -18.344444,28.92778 13.405555,-3.52751 18.697223,-5.29193 9.172222,-2.93981 4.132618,-1.19363 6.450717,5.54455 h 0.35278 c 0.64568,-0.84098 1.81719,-2.02193 1.72387,-3.175 -0.18971,-2.34392 -5.496205,-6.42038 -7.721096,-6.12624 -8.227889,1.08772 -16.828296,4.23581 -24.694445,6.83207 -3.649292,1.20446 -8.479187,3.52651 -12.347222,3.17472 4.381618,-5.70037 10.523588,-13.58585 12.7,-20.46111 z"
         id="path18150" /><path
         style="fill:#7f8287;stroke:none"
         d="m 80.273583,155.35154 v 0.35278 l 2.469444,1.05833 v -0.35277 l -2.469444,-1.05834 m 52.211107,0 -1.76388,1.05834 v 0.35277 l 2.11666,-1.05833 -0.35278,-0.35278 m 1.76389,0 0.35278,0.35278 -0.35278,-0.35278 m 2.82223,0 0.35277,0.35278 -0.35277,-0.35278 m 4.93888,0 0.35278,0.35278 -0.35278,-0.35278 m -70.202774,0.35278 0.352778,0.35278 -0.352778,-0.35278 m 0.705556,0.35278 0.352777,0.35278 -0.352777,-0.35278 m 62.088888,0 0.70556,0.70555 -0.70556,-0.70555 m 2.82222,0 0.70556,1.41111 h 0.35278 l -1.05834,-1.41111 m -64.205553,0.35278 v 0.35277 l 1.763889,0.70556 v -0.35278 l -1.763889,-0.70555 m 9.877778,0.35277 0.352778,0.35278 -0.352778,-0.35278 m 46.919445,0 0.35278,0.35278 -0.35278,-0.35278 m 13.05278,0 0.35278,0.35278 z"
         id="path18149" /><path
         style="fill:#032136;stroke:none"
         d="m 121.54858,199.44877 h -0.70555 c -2.41918,-5.09124 -6.68635,-11.10094 -10.58334,-15.16945 l -1.83875,3.88056 4.35801,6.70278 11.23908,16.22777 h 0.35278 c 0.0869,-10.50208 2.40747,-21.24969 3.14342,-31.75 0.33543,-4.78589 -0.50513,-12.12155 1.30277,-16.54354 0.82235,-2.01139 5.22803,-3.70248 7.19547,-4.27035 l -1.76389,-3.52777 c -2.19208,0.69367 -6.41066,2.37747 -7.71184,4.34929 -1.87861,2.84686 -1.86839,8.21178 -2.22446,11.52571 -0.99838,9.29176 -0.60027,19.49227 -2.7637,28.575 z"
         id="path18148" /><path
         style="fill:#7f8287;stroke:none"
         d="m 150.71154,136.41914 0.23519,0.11759 -0.23519,-0.11759 m 15.52222,0 0.2352,0.11759 -0.2352,-0.11759 m -122.649066,0.23518 v 0.35278 h 1.058333 l -1.058333,-0.35278 m 28.104631,0.1176 0.235182,0.11758 -0.235182,-0.11758 m 9.760182,0.11758 0.117596,0.2352 -0.117596,-0.2352 m 59.384253,-0.11758 0.2352,0.11758 -0.2352,-0.11758 m 11.05371,-0.1176 0.35278,0.35278 -0.35278,-0.35278 m 15.75741,0.1176 0.23519,0.11758 -0.23519,-0.11758 m -124.883335,0.35278 0.235187,0.11758 -0.235187,-0.11758 m 27.281482,-0.1176 v 0.35278 h 1.058333 l -1.058333,-0.35278 m 4.703702,0.23518 0.117596,0.23519 -0.117596,-0.23519 m 56.797231,0 0.11758,0.23519 -0.11758,-0.23519 m 4.23333,0 0.11759,0.23519 -0.11759,-0.23519 m 2.46944,0 0.11759,0.23519 -0.11759,-0.23519 m 3.41019,-0.23518 v 0.35278 h 1.05833 l -1.05833,-0.35278 m 27.39907,0.1176 0.23519,0.11758 -0.23519,-0.11758 m -127.705556,0.35277 0.235186,0.11759 -0.235186,-0.11759 m 27.869447,0 0.235181,0.11759 -0.235181,-0.11759 m 74.083329,0 0.23519,0.11759 -0.23519,-0.11759 m 26.57593,-0.11759 v 0.35277 h 1.05833 l -1.05833,-0.35277 m -131.586113,1.05833 2.116667,-0.35278 -2.116667,0.35278 m 29.280556,-0.70556 v 0.35278 h 1.058333 l -1.058333,-0.35278 m 9.877777,0 0.352778,0.35278 -0.352778,-0.35278 m 4.233334,0 0.352778,0.35278 -0.352778,-0.35278 m 63.029626,0.1176 0.23519,0.11759 -0.23519,-0.11759 m 11.05371,-0.1176 0.35278,0.35278 -0.35278,-0.35278 m 15.52222,0 v 0.35278 h 1.05833 l -1.05833,-0.35278 m -104.539814,0.47038 0.235182,0.11758 -0.235182,-0.11758 m 8.23148,-0.1176 0.352778,0.35278 -0.352778,-0.35278 m 56.209264,0.23518 0.11758,0.2352 -0.11758,-0.2352 m 4.11574,-0.23518 v 1.05834 h 0.35277 l -0.35277,-1.05834 m 2.46944,0 v 1.05834 h 0.35278 l -0.35278,-1.05834 m 7.76111,0 v 0.35278 h 1.05834 l -1.05834,-0.35278 m 11.64167,0 0.35278,0.35278 -0.35278,-0.35278 m 15.875,0 v 0.35278 h 1.05833 l -1.05833,-0.35278 m -121.708335,0.70556 v 0.35278 l 2.469444,-0.35278 h -2.469444 m 13.758333,-0.35278 v 0.35278 h 1.058334 l -1.058334,-0.35278 m 12.7,0 0.352778,0.35278 -0.352778,-0.35278 m 4.233334,0 0.352777,0.35278 -0.352777,-0.35278 m 64.911108,0 v 0.35278 h 1.05834 l -1.05834,-0.35278 m 11.1713,0.1176 0.23519,0.11758 -0.23519,-0.11758 m 16.34537,-0.1176 -1.41111,0.70556 v 0.35277 l 1.76389,-0.70555 -0.35278,-0.35278 m -135.11389,0.35278 0.352778,0.35278 -0.352778,-0.35278 m 24.929632,0.11759 0.235181,0.11759 -0.235181,-0.11759 m 11.053702,-0.11759 -0.352778,1.05833 v 0.35278 c 1.030993,-0.22553 1.00762,-0.6583 0.352778,-1.41111 m 73.260186,0.11759 0.23519,0.11759 -0.23519,-0.11759 m 10.93611,0 0.23519,0.11759 -0.23519,-0.11759 m -119.474074,0.23519 0.352778,0.35277 -0.352778,-0.35277 m 10.583333,0 0.352778,0.35277 -0.352778,-0.35277 m 12.347223,0 0.352777,0.35277 -0.352777,-0.35277 m 15.169444,0 0.352778,0.35277 -0.352778,-0.35277 m 4.233333,0 0.352778,0.35277 -0.352778,-0.35277 m 48.448151,0.23518 0.11759,0.23519 -0.11759,-0.23519 m 18.93241,-0.23518 0.35277,0.35277 -0.35277,-0.35277 m 10.93611,0 v 0.35277 h 1.05833 l -1.05833,-0.35277 m -119.944449,0.35277 0.352778,0.35278 -0.352778,-0.35278 m 94.309259,0.23519 0.11759,0.23519 -0.11759,-0.23519 m 2.35185,-0.23519 1.05834,0.70556 v -0.35278 l -1.05834,-0.35278 m 13.40556,0 0.35278,0.35278 -0.35278,-0.35278 m 21.51944,0 0.35278,0.35278 -0.35278,-0.35278 m -130.880553,0.35278 0.352778,0.35278 -0.352778,-0.35278 m 18.344445,0 0.352777,0.35278 -0.352777,-0.35278 m 18.697222,0 0.352778,0.35278 -0.352778,-0.35278 m 83.608336,0 0.35278,0.35278 -0.35278,-0.35278 m 9.525,0 0.35278,0.35278 -0.35278,-0.35278 m -129.469447,0.35278 0.352777,0.35278 -0.352777,-0.35278 m 31.397222,0 v 0.35278 h 1.058333 l -1.058333,-0.35278 m 9.172222,0 0.352778,0.35278 -0.352778,-0.35278 m 47.625003,0 0.35278,0.35278 -0.35278,-0.35278 m 8.46666,0 v 0.35278 h 1.05834 l -1.05834,-0.35278 m 32.10278,0 -0.35278,0.70555 0.35278,-0.70555 m -128.058332,0.35278 0.352778,0.35277 -0.352778,-0.35277 m 15.522222,0 0.352778,0.35277 -0.352778,-0.35277 m 13.758334,0 v 0.35277 h 1.058333 l -1.058333,-0.35277 m 6.702778,0 0.352777,0.35277 -0.352777,-0.35277 m 55.856488,0.23518 0.11758,0.23519 -0.11758,-0.23519 m 5.52685,-0.23518 v 0.35277 h 1.05833 l -1.05833,-0.35277 m -96.661116,0.35277 0.352777,0.35278 -0.352777,-0.35278 m 8.819444,0 0.352778,0.35278 -0.352778,-0.35278 m 6.702778,0 0.352778,0.35278 -0.352778,-0.35278 m 9.877778,0 v 0.35278 h 2.469444 l -2.469444,-0.35278 m 14.111111,0 0.352778,0.35278 -0.352778,-0.35278 m 58.913885,0 v 0.35278 h 1.41112 l -1.41112,-0.35278 m 27.86945,0 0.35278,0.35278 -0.35278,-0.35278 m -125.588891,0.35278 0.352778,0.35278 -0.352778,-0.35278 m 15.522223,0 0.352777,0.35278 -0.352777,-0.35278 m 19.402777,0 0.352778,0.35278 -0.352778,-0.35278 m 50.800001,0 0.35278,0.35278 -0.35278,-0.35278 m 14.11111,0 0.35278,0.35278 -0.35278,-0.35278 m 9.17222,0 0.35278,0.35278 -0.35278,-0.35278 m 6.70278,0 0.35278,0.35278 -0.35278,-0.35278 m 9.17222,0 0.35278,0.35278 -0.35278,-0.35278 m -124.177775,0.35278 0.352778,0.35278 -0.352778,-0.35278 m 38.452778,0 0.352777,0.35278 -0.352777,-0.35278 m 50.799997,0 0.35278,0.35278 -0.35278,-0.35278 m 18.34445,0 0.35278,0.35278 -0.35278,-0.35278 m 6.70278,0 0.35277,0.35278 -0.35277,-0.35278 m 9.17222,0 0.35278,0.35278 -0.35278,-0.35278 m -99.836114,0.35278 v 0.35278 l 1.411111,0.35277 v -0.35277 l -1.411111,-0.35278 m 10.936111,0 -0.352778,1.05833 0.352778,-1.05833 m 88.194443,0 0.35278,0.35278 -0.35278,-0.35278 m -112.888887,0.35278 0.352777,0.35277 -0.352777,-0.35277 m 28.927777,0 0.352778,0.35277 -0.352778,-0.35277 m 60.2074,0.11759 0.2352,0.11759 -0.2352,-0.11759 m 13.87593,-0.11759 0.35278,0.35277 -0.35278,-0.35277 m 9.17223,0 0.35277,0.35277 -0.35277,-0.35277 m -111.477782,0.35277 0.352778,0.35278 -0.352778,-0.35278 m 6.702778,0 0.352778,0.35278 -0.352778,-0.35278 m 8.113889,0 0.352778,0.35278 -0.352778,-0.35278 m 63.500005,0 0.35277,0.35278 -0.35277,-0.35278 m 9.05462,0.1176 0.23519,0.11759 -0.23519,-0.11759 m 14.22871,-0.1176 0.35278,0.35278 -0.35278,-0.35278 m 9.17222,0 0.35278,0.35278 -0.35278,-0.35278 m -110.066666,0.35278 0.352777,0.35278 -0.352777,-0.35278 m 14.816666,0 0.352778,0.35278 -0.352778,-0.35278 m 13.052778,0 0.352778,0.35278 -0.352778,-0.35278 m 45.155552,0 0.35278,0.35278 -0.35278,-0.35278 m 12.7,0 0.35278,0.35278 -0.35278,-0.35278 m 8.11389,0 0.35278,0.35278 -0.35278,-0.35278 m 6.35,0 0.35278,0.35278 -0.35278,-0.35278 m 9.17223,0 0.35277,0.35278 -0.35277,-0.35278 m -117.475005,0.35278 0.352778,0.35278 -0.352778,-0.35278 m 8.819444,0 v 0.35278 l 1.763889,0.70555 v -0.35278 l -1.763889,-0.70555 m 14.816667,0 0.705556,0.70555 -0.705556,-0.70555 m 69.497224,0 0.35278,0.35278 -0.35278,-0.35278 m 14.46389,0 -1.05834,0.70555 v 0.35278 l 1.41112,-0.70555 -0.35278,-0.35278 m -77.258336,0.35278 0.352778,0.35277 -0.352778,-0.35277 m 5.291666,0 -0.352777,0.70555 0.352777,-0.70555 m -34.572222,0.35277 0.352778,0.35278 -0.352778,-0.35278 m 15.522222,0 0.352778,0.35278 -0.352778,-0.35278 m 8.113889,0 0.352778,0.35278 -0.352778,-0.35278 m 67.027781,0 0.35278,0.35278 -0.35278,-0.35278 m 8.46666,0 0.35278,0.35278 -0.35278,-0.35278 m 15.52223,0 0.35277,0.35278 -0.35277,-0.35278 m -113.947226,0.35278 0.352777,0.35278 -0.352777,-0.35278 m 9.172222,0 0.352778,0.35278 -0.352778,-0.35278 m 6.35,0 0.352778,0.35278 -0.352778,-0.35278 m 12.7,0 -0.352778,1.05834 h 0.352778 v -1.05834 m 56.091664,0 0.70556,0.70556 -0.70556,-0.70556 m 4.93889,0 0.35278,0.35278 -0.35278,-0.35278 m 8.46667,0 0.35278,0.35278 -0.35278,-0.35278 m 6.35,0 0.35278,0.35278 -0.35278,-0.35278 m 9.17222,0 0.35278,0.35278 -0.35278,-0.35278 m -112.536111,0.35278 0.352778,0.35278 -0.352778,-0.35278 m 9.172223,0 0.352777,0.35278 -0.352777,-0.35278 m 6.35,0 v 0.35278 l 1.411111,0.70555 v -0.35277 l -1.411111,-0.70556 m 7.761111,0 0.352777,0.35278 -0.352777,-0.35278 m 9.172222,0 0.352778,0.35278 -0.352778,-0.35278 m 46.566665,0 0.70556,0.70556 -0.70556,-0.70556 m 8.81945,0 0.35277,0.35278 -0.35277,-0.35278 m 8.46666,0 -1.05833,0.70556 v 0.35277 l 1.41111,-0.70555 -0.35278,-0.35278 m 6.35,0 0.35278,0.35278 -0.35278,-0.35278 m 9.17223,0 0.35277,0.35278 -0.35277,-0.35278 m -111.125005,0.35278 0.352778,0.35278 -0.352778,-0.35278 m 110.419445,0 0.35278,0.35278 -0.35278,-0.35278 m -109.71389,0.35278 0.352778,0.35277 -0.352778,-0.35277 m 30.691667,0 -0.352778,0.70555 0.352778,-0.70555 m 52.211113,0 0.35278,0.35277 -0.35278,-0.35277 m 26.10555,0 0.35278,0.35277 -0.35278,-0.35277 m -108.302774,0.35277 0.352778,0.35278 -0.352778,-0.35278 m 15.169444,0 0.352778,0.35278 -0.352778,-0.35278 m 70.20278,0 0.70555,0.70556 -0.70555,-0.70556 m 7.05555,0 0.35278,0.35278 -0.35278,-0.35278 m 15.16945,0 0.35278,0.35278 -0.35278,-0.35278 m -106.891669,0.35278 0.352778,0.35278 -0.352778,-0.35278 m 15.169445,0 0.705556,0.70556 -0.705556,-0.70556 m 62.088894,0 0.70555,0.70556 -0.70555,-0.70556 m 13.75833,0 0.35278,0.35278 -0.35278,-0.35278 m 15.16944,0 0.35278,0.35278 -0.35278,-0.35278 m -87.136108,0.35278 0.352777,0.35278 -0.352777,-0.35278 m 9.525,0 0.352777,0.35278 -0.352777,-0.35278 m 61.736108,0 0.35278,0.35278 -0.35278,-0.35278 m 15.16945,0 0.35278,0.35278 -0.35278,-0.35278 m -95.250003,0.35278 0.352778,0.35277 -0.352778,-0.35277 m 5.997222,0 0.352778,0.35277 -0.352778,-0.35277 m 7.055556,0 0.352778,0.35277 -0.352778,-0.35277 m 59.266665,0 0.35278,0.35277 -0.35278,-0.35277 m 2.82222,0 0.70556,0.70555 -0.70556,-0.70555 m 4.23334,0 0.35278,0.35277 -0.35278,-0.35277 m 6.35,0 0.35278,0.35277 -0.35278,-0.35277 m 8.81944,0 0.35278,0.35277 -0.35278,-0.35277 m -102.658332,0.35277 0.352778,0.35278 -0.352778,-0.35278 m 8.819445,0 0.352777,0.35278 -0.352777,-0.35278 m 5.997222,0 0.352778,0.35278 -0.352778,-0.35278 m 11.288889,0 0.352778,0.35278 -0.352778,-0.35278 m 67.027776,0 0.35278,0.35278 -0.35278,-0.35278 m 8.81945,0 0.35277,0.35278 -0.35277,-0.35278 m -92.427782,0.35278 0.352778,0.35278 -0.352778,-0.35278 m 6.702778,0 0.352778,0.35278 -0.352778,-0.35278 m 59.972224,0 0.35278,0.35278 -0.35278,-0.35278 m 16.22778,0 0.35277,0.35278 -0.35277,-0.35278 m 8.81944,0 0.35278,0.35278 -0.35278,-0.35278 m -99.836111,0.35278 0.352778,0.35278 -0.352778,-0.35278 m 8.819445,0 0.352778,0.35278 -0.352778,-0.35278 m 90.311116,0 0.35277,0.35278 -0.35277,-0.35278 m -98.425005,0.35278 0.352778,0.35278 -0.352778,-0.35278 m 8.819444,0 0.352778,0.35278 -0.352778,-0.35278 m 14.463889,0 0.352778,0.35278 -0.352778,-0.35278 m 74.436112,0 0.35278,0.35278 -0.35278,-0.35278 m -88.194445,0.35278 0.352778,0.35277 -0.352778,-0.35277 m 8.466667,0 -0.705556,1.76388 h 0.352778 l 0.352778,-1.76388 m 56.797218,0 0.35278,0.35277 -0.35278,-0.35277 m 13.75834,0 0.35278,0.35277 -0.35278,-0.35277 m -78.31667,0.35277 v 0.35278 l 2.469445,1.05833 v -0.35277 l -2.469445,-1.05834 m 12.7,0 0.352778,0.35278 -0.352778,-0.35278 m 63.5,0.70556 v 0.35278 l 1.76389,-0.70556 -1.76389,0.35278 m 9.87778,-0.70556 0.35278,0.35278 -0.35278,-0.35278 m -0.70556,0.35278 0.35278,0.35278 -0.35278,-0.35278 m -20.10833,0.35278 0.70556,0.70555 -0.70556,-0.70555 m 4.93889,0 1.05833,1.05833 -1.05833,-1.05833 m -77.258335,0.35278 0.352778,0.35277 -0.352778,-0.35277 m 19.05,0 0.352778,0.35277 -0.352778,-0.35277 m 63.500005,0 0.35277,0.35277 -0.35277,-0.35277 m 8.81944,0 0.35278,0.35277 -0.35278,-0.35277 m -90.66389,0.35277 0.352778,0.35278 -0.352778,-0.35278 m 9.172223,0 0.352777,0.35278 -0.352777,-0.35278 m 4.938889,0 0.352777,0.35278 -0.352777,-0.35278 m 67.027778,0 0.35278,0.35278 -0.35278,-0.35278 m 8.81944,0 0.35278,0.35278 -0.35278,-0.35278 m -89.252774,0.35278 0.352778,0.35278 -0.352778,-0.35278 m 14.346298,0.11759 0.235182,0.11761 -0.235182,-0.11761 m 65.381476,-0.11759 0.70556,1.05834 -0.70556,-1.05834 m 8.81945,0 0.35278,0.35278 -0.35278,-0.35278 m -87.841668,0.35278 0.352777,0.35278 -0.352777,-0.35278 m 14.463888,0 0.352778,0.35278 -0.352778,-0.35278 m 61.73611,0 0.35278,0.35278 -0.35278,-0.35278 m 10.93611,0 0.35278,0.35278 -0.35278,-0.35278 m -86.430553,0.35278 0.352778,0.35278 -0.352778,-0.35278 m 14.463889,0 0.352778,0.35278 -0.352778,-0.35278 m 71.261114,0 0.35278,0.35278 -0.35278,-0.35278 m -85.019447,0.35278 0.352777,0.35277 -0.352777,-0.35277 m 8.819444,0 0.352778,0.35277 -0.352778,-0.35277 m 75.494443,0 0.35278,0.35277 -0.35278,-0.35277 m -83.255554,0.35277 0.352778,0.35278 -0.352778,-0.35278 m 8.466667,0 0.352777,0.35278 -0.352777,-0.35278 m 65.969447,0 0.35278,0.35278 -0.35278,-0.35278 m 2.82222,0 0.35278,0.35278 -0.35278,-0.35278 m 5.29167,0 0.35277,0.35278 -0.35277,-0.35278 m -81.844448,0.35278 0.352777,0.35278 -0.352777,-0.35278 m 8.466666,0 0.352778,0.35278 -0.352778,-0.35278 m 72.672222,0 0.35278,0.35278 -0.35278,-0.35278 m -71.966666,0.35278 0.352778,0.35278 -0.352778,-0.35278 m 67.733336,0 0.35278,0.35278 -0.35278,-0.35278 m 3.52778,0 0.35277,0.35278 -0.35277,-0.35278 m -70.555561,0.35278 0.352778,0.35277 -0.352778,-0.35277 m 64.558331,0 0.35278,0.35277 -0.35278,-0.35277 m 5.29167,0 0.35278,0.35277 -0.35278,-0.35277 m -77.96389,0.35277 0.352778,0.35278 -0.352778,-0.35278 m 8.819445,0 0.352778,0.35278 -0.352778,-0.35278 m 68.438885,0 0.35278,0.35278 -0.35278,-0.35278 m -67.73333,0.35278 0.352778,0.35278 -0.352778,-0.35278 m 66.32222,0 0.35278,0.35278 -0.35278,-0.35278 m -65.616664,0.35278 0.352778,0.35278 -0.352778,-0.35278 m 58.208334,0 0.35278,0.35278 -0.35278,-0.35278 m 4.93889,0 0.35278,0.35278 -0.35278,-0.35278 m -62.441668,0.35278 0.352777,0.35278 -0.352777,-0.35278 m 0.705555,0.35278 0.352778,0.35277 -0.352778,-0.35277 m 53.622223,0 0.35278,0.35277 z"
         id="path18147" /><path
         style="fill:#032136;stroke:none"
         d="m 138.83469,136.30154 -1.05833,3.52778 7.05556,1.76389 v 0.70556 l -6.70278,2.82222 2.50238,3.13879 3.84762,-1.80907 10.23055,-5.56306 z"
         id="path18146" /><path
         style="fill:#7f8287;stroke:none"
         d="m 131.77914,136.30154 0.35278,0.35278 z"
         id="path18145" /><path
         style="fill:#032136;stroke:none"
         d="m 58.40136,140.1821 v 0.35278 l 9.172223,5.15175 3.848979,1.8676 2.501021,-2.78602 -5.644445,-2.82222 v -0.70556 l 7.408334,-1.41111 -1.411112,-3.52778 z"
         id="path18144" /><path
         style="fill:#7f8287;stroke:none"
         d="m 143.42081,134.53765 v 0.35278 h 1.05833 l -1.05833,-0.35278 m 16.22777,0 0.35278,0.35278 -0.35278,-0.35278 m -109.008331,0.35278 0.352778,0.35278 -0.352778,-0.35278 m 15.875,0 v 0.35278 h 1.058334 l -1.058334,-0.35278 m 14.228702,0.23518 0.117596,0.2352 -0.117596,-0.2352 m 54.562969,-0.23518 0.35277,0.35278 -0.35277,-0.35278 m 9.525,0 v 0.35278 h 1.05833 l -1.05833,-0.35278 m 16.22777,0 0.35278,0.35278 -0.35278,-0.35278 m -111.830552,0.35278 0.352778,0.35278 -0.352778,-0.35278 m 16.110187,0.1176 0.235182,0.11758 -0.235182,-0.11758 m 66.910185,0.11758 0.11759,0.23519 -0.11759,-0.23519 m 3.76296,-0.23518 v 1.05833 h 0.35278 l -0.35278,-1.05833 m 10.23056,0 v 0.35278 h 1.05833 l -1.05833,-0.35278 m 16.11018,0.1176 0.23519,0.11758 -0.23519,-0.11758 m -114.299999,0.35277 0.235187,0.11759 -0.235187,-0.11759 m 15.875003,0 0.235182,0.11759 -0.235182,-0.11759 m 83.961106,0 0.23519,0.11759 -0.23519,-0.11759 m 15.875,0 0.23519,0.11759 -0.23519,-0.11759 m -117.12222,0.35278 0.235187,0.11759 -0.235187,-0.11759 m 15.875003,0 0.235182,0.11759 -0.235182,-0.11759 m 11.40648,-0.11759 0.705555,0.70555 -0.705555,-0.70555 m 2.822222,0 0.352778,0.35277 -0.352778,-0.35277 m 4.233333,0 0.352778,0.35277 -0.352778,-0.35277 m 57.502782,0 v 0.35277 0.35278 h 1.41111 v -0.35278 l -1.41111,-0.35277 m 10.81851,0.11759 0.23519,0.11759 -0.23519,-0.11759 m 15.52222,0 0.2352,0.11759 -0.2352,-0.11759 m -119.826845,0.23518 v 0.35278 h 1.058333 l -1.058333,-0.35278 m 16.227778,0 0.352777,0.35278 -0.352777,-0.35278 m 11.876853,0.1176 0.235182,0.11759 z"
         id="path18143" /><path
         style="fill:#032136;stroke:none"
         d="m 152.59303,178.98765 -7.40834,-1.45193 -14.81666,-4.19251 -0.35278,4.23333 32.10278,8.46667 c -2.1677,-4.58223 -5.58364,-8.77922 -8.31315,-13.05278 -5.63749,-8.82654 -11.24266,-17.80485 -17.6427,-26.10555 -0.78028,-1.01201 -1.89419,-2.19203 -2.0037,-3.52778 -0.15133,-1.84596 4.094,-9.30978 -0.56891,-8.64197 -2.25391,0.3228 -4.56865,8.66886 -3.56289,10.40586 6.72242,11.60988 15.15075,22.65983 22.56635,33.86666 z"
         id="path18142" /><path
         style="fill:#7f8287;stroke:none"
         d="m 71.454138,129.95154 0.352778,0.35278 -0.352778,-0.35278 m 17.638889,0 v 0.35278 h 1.058334 l -1.058334,-0.35278 m 37.276853,0.1176 0.23519,0.11759 -0.23519,-0.11759 m 15.875,0 0.23519,0.11759 -0.23519,-0.11759 m -73.965742,0.23518 v 0.35278 h 1.058334 l -1.058334,-0.35278 m 5.997222,0 0.352778,0.35278 -0.352778,-0.35278 m 13.052778,0 v 0.35278 h 1.058334 l -1.058334,-0.35278 m 40.451852,0.1176 0.23519,0.11758 -0.23519,-0.11758 m 15.875,0 0.23519,0.11758 -0.23519,-0.11758 m -76.199998,0.35278 0.235181,0.11758 -0.235181,-0.11758 m 4.350924,-0.1176 0.352778,0.35278 -0.352778,-0.35278 m 14.463889,0 0.352778,0.35278 -0.352778,-0.35278 m 42.686115,0 0.35277,0.35278 -0.35277,-0.35278 m 16.11018,0.1176 0.23519,0.11758 -0.23519,-0.11758 m -79.022219,0.35277 0.235181,0.11759 -0.235181,-0.11759 m 8.701848,0.11759 0.117596,0.23519 -0.117596,-0.23519 m 71.143521,-0.23518 v 0.35277 h 1.05833 l -1.05833,-0.35277 m -81.844445,0.35277 v 0.35278 h 1.058333 l -1.058333,-0.35278 m 83.255555,0 v 0.35278 h 1.05833 l -1.05833,-0.35278 m -84.666666,0.35278 v 0.35278 h 1.058333 l -1.058333,-0.35278 m 9.525,0 0.352778,0.35278 -0.352778,-0.35278 m 76.552776,0 v 0.35278 h 1.05834 l -1.05834,-0.35278 m -87.488887,0.35278 v 0.35278 h 1.058333 l -1.058333,-0.35278 m 13.758333,0 0.705556,1.05833 -0.705556,-1.05833 m 75.141664,0 v 0.35278 h 1.05834 l -1.05834,-0.35278 m -90.311108,0.35278 v 0.35278 h 1.058333 l -1.058333,-0.35278 m 12.7,0 0.352777,0.35278 -0.352777,-0.35278 m 62.676848,0.11759 0.23519,0.11759 -0.23519,-0.11759 m 16.34537,-0.11759 v 0.35278 h 1.05834 l -1.05834,-0.35278 m -93.486107,0.35278 v 0.35277 h 1.411111 l -1.411111,-0.35277 m 77.963887,0 v 0.35277 h 1.05834 l -1.05834,-0.35277 m 16.93334,0 v 0.35277 h 1.05833 l -1.05833,-0.35277 m -95.720376,0.47037 0.235187,0.11759 -0.235187,-0.11759 m 15.639815,-0.1176 -0.705555,0.35278 v 0.35278 l 0.705555,-0.70556 m 64.558331,0 v 0.35278 h 1.05834 l -1.05834,-0.35278 m 17.16852,0.1176 0.23519,0.11759 -0.23519,-0.11759 m -15.75741,0.23518 v 0.35278 h 1.05834 l -1.05834,-0.35278 m -68.086107,0.35278 v 0.35278 h 1.058333 l -1.058333,-0.35278 m 69.497227,0 v 0.35278 h 1.05833 l -1.05833,-0.35278 m -70.908338,0.35278 v 0.35277 h 1.058333 l -1.058333,-0.35277 m 10.936111,0 0.352777,0.35277 -0.352777,-0.35277 m 52.211107,0 v 0.70555 l 0.70556,-0.70555 h -0.70556 m 9.525,0 v 0.35277 h 1.05834 l -1.05834,-0.35277 m 16.22778,0 0.35278,0.35277 -0.35278,-0.35277 m -90.31111,0.35277 v 0.35278 h 1.058334 z"
         id="path18141" /><path
         style="fill:#032136;stroke:none"
         d="m 38.998583,138.41821 c 2.48661,2.06035 5.988041,3.31007 8.819444,4.88962 7.502931,4.18566 15.252186,8.11689 22.930556,11.95606 3.405509,1.70276 10.468644,3.23812 12.841276,6.18287 1.422894,1.766 1.44744,6.15208 1.622613,8.36867 0.945038,-0.26567 2.910379,-0.38684 3.486399,-1.26603 1.105967,-1.68805 -0.902023,-9.17478 -2.475156,-10.25123 -3.554553,-2.43231 -8.138215,-3.81763 -11.947355,-5.87773 -7.829986,-4.23469 -15.826545,-9.0739 -23.988889,-12.59112 v -0.35278 l 22.577778,-5.99722 c -1.344023,-4.91148 -4.950699,-2.68643 -8.819444,-1.71924 -8.164623,2.04115 -17.30746,3.32814 -25.047222,6.65813 z"
         id="path18140" /><path
         style="fill:#7f8287;stroke:none"
         d="m 125.89951,118.54506 0.11759,0.23519 -0.11759,-0.23519 m 4.11574,-0.23518 0.35278,0.35277 -0.35278,-0.35277 m 2.11667,0 -0.35278,0.70555 0.35278,-0.70555 m 6.82037,0.23518 0.11759,0.23519 -0.11759,-0.23519 m -40.56945,0.35278 0.117596,0.23519 -0.117596,-0.23519 m 16.11019,-0.23519 0.35278,0.35278 -0.35278,-0.35278 m 5.29166,0 0.35278,0.35278 -0.35278,-0.35278 m 15.9926,0.23519 0.11759,0.23519 -0.11759,-0.23519 m -54.445374,0.11759 0.705556,1.76389 h 0.352777 l -1.058333,-1.76389 m 32.455554,0 0.35278,0.35278 -0.35278,-0.35278 m 5.29167,0 0.35278,0.35278 -0.35278,-0.35278 m -41.62778,0.35278 0.352778,0.35278 -0.352778,-0.35278 m 10.348147,0.23518 0.117596,0.23519 -0.117596,-0.23519 m 3.527778,0 0.117596,0.23519 -0.117596,-0.23519 m 27.046295,-0.23518 0.35278,0.35278 -0.35278,-0.35278 m 3.99815,0.23518 0.11759,0.23519 -0.11759,-0.23519 m 3.88056,0 0.11759,0.23519 -0.11759,-0.23519 m 5.29167,0 0.11758,0.23519 -0.11758,-0.23519 m 7.05555,0 0.11759,0.23519 -0.11759,-0.23519 m -63.970372,0.1176 0.352778,0.35278 -0.352778,-0.35278 m 20.813889,0 0.352778,0.35278 -0.352778,-0.35278 m 39.981483,0.23518 0.11759,0.23519 -0.11759,-0.23519 m -57.502781,0.35278 0.117596,0.23519 -0.117596,-0.23519 m 40.451851,-0.23518 0.35278,0.35277 -0.35278,-0.35277 m -43.391664,0.35277 0.705556,2.46945 h 0.352777 l -1.058333,-2.46945 m 15.992591,0.23519 0.117596,0.23519 -0.117596,-0.23519 m 10.112963,-0.23519 0.35278,0.35278 -0.35278,-0.35278 m 21.63704,0.23519 0.11759,0.23519 -0.11759,-0.23519 m 2.46945,0 0.11758,0.23519 -0.11758,-0.23519 m 5.99722,0 0.11758,0.23519 -0.11758,-0.23519 m 7.05555,0 0.11759,0.23519 -0.11759,-0.23519 m 4.46852,-0.23519 0.35278,0.35278 -0.35278,-0.35278 m -47.50741,0.58796 0.117596,0.2352 -0.117596,-0.2352 m 6.58519,-0.23518 0.35278,0.35278 -0.35278,-0.35278 m 8.46666,0 0.35278,0.35278 -0.35278,-0.35278 m 8.58427,0.23518 0.11758,0.2352 -0.11758,-0.2352 m 16.22777,0 0.11759,0.2352 -0.11759,-0.2352 m -56.914814,0.1176 0.352778,0.35278 -0.352778,-0.35278 m 4.233333,0 0.352778,0.35278 -0.352778,-0.35278 m 20.343521,0.1176 0.23518,0.11758 -0.23518,-0.11758 m 6.82037,-0.1176 0.35278,0.35278 -0.35278,-0.35278 m 32.92593,0.23518 0.11758,0.23519 -0.11758,-0.23519 m -38.92315,0.1176 v 0.35277 l 1.41111,0.35278 v -0.35278 l -1.41111,-0.35277 m 5.17407,0.11759 0.23519,0.11759 -0.23519,-0.11759 m 14.3463,0.11759 0.11759,0.23519 -0.11759,-0.23519 m 7.76111,0 0.11759,0.23519 -0.11759,-0.23519 m 7.05556,0 0.11758,0.23519 -0.11758,-0.23519 m -59.266675,0.35278 0.117596,0.23519 -0.117596,-0.23519 m 4.233333,0 0.117596,0.23519 -0.117596,-0.23519 m 7.761111,0 0.117596,0.23519 -0.117596,-0.23519 m 4.233333,0 0.117597,0.23519 -0.117597,-0.23519 m 12.935188,-0.23519 0.35278,0.35278 -0.35278,-0.35278 m 11.40648,0.23519 0.11759,0.23519 -0.11759,-0.23519 m 15.52223,0 0.11758,0.23519 -0.11758,-0.23519 m -63.6176,0.11759 0.352778,0.35278 -0.352778,-0.35278 m 34.45463,0.1176 0.23518,0.11758 -0.23518,-0.11758 m 1.5287,-0.1176 0.35278,0.35278 -0.35278,-0.35278 m 34.925,0 0.35278,0.35278 -0.35278,-0.35278 m -35.63055,0.35278 0.35278,0.35278 -0.35278,-0.35278 m 17.05093,0.23518 0.11758,0.23519 -0.11758,-0.23519 m 14.11111,0 0.11758,0.23519 -0.11758,-0.23519 m -58.561118,0.35278 0.117597,0.23519 -0.117597,-0.23519 m 4.233334,0 0.117596,0.23519 -0.117596,-0.23519 m 6.937965,-0.23518 v 1.05833 h 0.352777 l -0.352777,-1.05833 m 4.350924,0.23518 0.117596,0.23519 -0.117596,-0.23519 m 25.047225,0 0.11759,0.23519 -0.11759,-0.23519 m 10.93611,0 0.11759,0.23519 -0.11759,-0.23519 m 3.88056,0 0.11758,0.23519 -0.11758,-0.23519 m 7.40833,0 0.11759,0.23519 -0.11759,-0.23519 m -65.61667,0.35278 0.117596,0.23519 -0.117596,-0.23519 m 47.62501,0.35278 0.11758,0.23519 -0.11758,-0.23519 m 13.40555,0 0.11759,0.23519 -0.11759,-0.23519 m -65.381484,0.11759 0.352778,0.35278 -0.352778,-0.35278 m 7.525924,0.23518 0.117596,0.2352 -0.117596,-0.2352 m 14.699076,-0.23518 0.352778,0.35278 -0.352778,-0.35278 m 25.870374,0.23518 0.11759,0.2352 -0.11759,-0.2352 m 7.99629,-0.23518 0.35278,0.35278 -0.35278,-0.35278 m 6.11482,0.23518 0.11759,0.2352 -0.11759,-0.2352 m 7.40833,0 0.11759,0.2352 -0.11759,-0.2352 m -64.911112,0.35278 0.117596,0.23519 -0.117596,-0.23519 m 6.820374,-0.11758 0.235182,0.11758 -0.235182,-0.11758 m 46.331478,-0.1176 v 0.35278 h 1.05834 l -1.05834,-0.35278 m -57.385185,0.58796 0.117596,0.23519 -0.117596,-0.23519 m 9.407409,-0.23518 0.352778,0.35277 -0.352778,-0.35277 m 8.23148,0.23518 0.117596,0.23519 -0.117596,-0.23519 m 34.219446,0 0.11759,0.23519 -0.11759,-0.23519 m 7.29074,-0.23518 0.35278,0.35277 -0.35278,-0.35277 m 5.40926,0.23518 0.11759,0.23519 -0.11759,-0.23519 m -57.267593,0.11759 0.352778,0.35278 -0.352778,-0.35278 m 1.058333,0 0.352778,0.35278 -0.352778,-0.35278 m 13.052778,0 0.352778,0.35278 -0.352778,-0.35278 m 26.575932,0.23519 0.11758,0.23519 -0.11758,-0.23519 m -43.509265,0.11759 0.352778,0.35278 -0.352778,-0.35278 m 64.323155,0.23518 0.11758,0.2352 -0.11758,-0.2352 m -68.438898,0.35278 0.117597,0.23519 -0.117597,-0.23519 m 15.75741,-0.23518 v 0.35278 h 1.058333 l -1.058333,-0.35278 m 5.056479,0.23518 0.117597,0.23519 -0.117597,-0.23519 m 31.514809,-0.11758 0.2352,0.11758 -0.2352,-0.11758 m 11.40649,-0.1176 0.35278,0.35278 -0.35278,-0.35278 m -59.149077,0.58796 0.117597,0.23519 -0.117597,-0.23519 m 9.760187,-0.23518 v 0.35278 h 1.058334 l -1.058334,-0.35278 m 33.63149,0.23518 0.11758,0.23519 -0.11758,-0.23519 m 5.17407,-0.23518 v 0.35278 h 1.41111 l -1.41111,-0.35278 m -40.922226,0.35278 v 0.35277 h 1.411111 l -1.411111,-0.35277 m 42.686116,0 v 0.35277 h 1.41111 l -1.41111,-0.35277 m 10.93611,0 0.35277,0.35277 -0.35277,-0.35277 m 2.23426,0.23518 0.11758,0.23519 -0.11758,-0.23519 m -67.850931,0.11759 0.352778,1.41111 h 0.352778 l -0.705556,-1.41111 m 10.230556,0 v 0.35278 h 1.411111 l -1.411111,-0.35278 m 9.877778,0 -0.352778,2.11667 h 0.352778 v -2.11667 m 36.336107,0 v 0.35278 h 1.05834 l -1.05834,-0.35278 m 9.87778,0 v 0.35278 h 1.05834 l -1.05834,-0.35278 m -61.73611,0.35278 0.352778,0.35278 -0.352778,-0.35278 m 3.527778,0 v 0.35278 h 1.411111 l -1.411111,-0.35278 m 39.981482,0.23518 0.11759,0.2352 -0.11759,-0.2352 m 10.11296,-0.23518 v 0.35278 h 1.05834 l -1.05834,-0.35278 m -50.799997,0.35278 0.352777,0.35278 -0.352777,-0.35278 m 52.211107,0 0.35278,0.35278 -0.35278,-0.35278 m -54.680552,0.70555 0.352778,0.35278 -0.352778,-0.35278 m 2.822222,0 0.352778,1.76389 h 0.352778 l -0.705556,-1.76389 m 40.56945,0 1.41111,1.05834 v -0.35278 l -1.41111,-0.70556 m -47.625005,0.35278 0.352778,0.35278 -0.352778,-0.35278 m 4.586111,0.35278 0.352778,0.35278 -0.352778,-0.35278 m 59.972224,0 0.35278,0.35278 -0.35278,-0.35278 m -64.087967,0.58796 0.117597,0.23519 -0.117597,-0.23519 m 18.226854,-0.23518 -1.411111,0.35278 v 0.35277 l 1.763889,-0.35277 -0.352778,-0.35278 m 30.691663,0 v 0.35278 h 1.05834 l -1.05834,-0.35278 m 16.46296,0.11759 0.2352,0.11759 -0.2352,-0.11759 m -15.05184,0.23519 v 0.35277 h 1.05833 l -1.05833,-0.35277 m 16.46295,0.11759 0.2352,0.11759 -0.2352,-0.11759 m -70.908324,0.35278 0.235182,0.11759 z"
         id="path18139" /><path
         style="fill:#032136;stroke:none"
         d="m 118.37358,119.72099 3.42271,8.87089 9.63007,2.9194 21.87222,5.69779 9.17223,2.97303 -20.10834,10.58333 c 1.50789,5.22167 5.41485,1.81677 8.81945,0.086 7.71907,-3.92407 15.29808,-8.75501 23.28333,-12.08046 v -0.35278 c -11.90839,-1.53788 -24.42034,-5.99275 -35.98333,-9.27457 -3.80369,-1.07957 -10.13792,-1.15552 -13.35847,-3.37507 -1.96511,-1.35433 -2.51837,-5.296 -3.22209,-7.45869 z"
         id="path18138" /><path
         style="fill:#7f8287;stroke:none"
         d="m 142.00969,110.19599 0.35278,0.35278 -0.35278,-0.35278 m -70.790739,0.58796 0.117596,0.23519 -0.117596,-0.23519 m 11.524076,-0.23518 0.352778,0.35277 -0.352778,-0.35277 m 11.641667,0 0.352778,0.35277 -0.352778,-0.35277 m 13.523156,0.23518 0.11758,0.23519 -0.11758,-0.23519 m 7.29073,0.11759 v 0.35278 l 1.41111,-0.35278 h -1.41111 m 15.52223,-0.35277 0.35277,0.35277 -0.35277,-0.35277 m -56.44445,0.35277 0.352778,0.35278 -0.352778,-0.35278 m 9.172223,0 0.352777,0.35278 -0.352777,-0.35278 m 28.222227,0 0.35277,0.35278 -0.35277,-0.35278 m 2.93981,0.23519 0.11759,0.23519 -0.11759,-0.23519 m 15.40463,-0.23519 0.35278,0.35278 -0.35278,-0.35278 m 16.22778,0 0.35278,0.35278 -0.35278,-0.35278 m -79.375003,0.35278 0.352778,0.35278 -0.352778,-0.35278 m 17.286111,0 0.352778,0.35278 -0.352778,-0.35278 m 14.58148,0.23518 0.117596,0.2352 -0.117596,-0.2352 m 30.574072,-0.23518 0.35278,0.35278 -0.35278,-0.35278 m 12.34723,0 0.35277,0.35278 -0.35277,-0.35278 m -70.202782,0.35278 0.352778,0.35278 -0.352778,-0.35278 m 3.292591,0.23518 0.117596,0.23519 -0.117596,-0.23519 m 10.112965,-0.23518 0.352778,0.35278 -0.352778,-0.35278 m 9.172222,0 0.352778,0.35278 -0.352778,-0.35278 m 7.408334,0 v 0.35278 h 1.05833 l -1.05833,-0.35278 m 3.99815,0.23518 0.11759,0.23519 -0.11759,-0.23519 m 2.82222,0 0.11759,0.23519 -0.11759,-0.23519 m 3.29259,-0.11758 0.23519,0.11758 -0.23519,-0.11758 m 17.05093,-0.1176 0.35278,0.35278 -0.35278,-0.35278 m 17.40371,0.23518 0.11758,0.23519 -0.11758,-0.23519 m -78.669454,0.35278 0.117596,0.23519 -0.117596,-0.23519 m 18.226853,-0.23518 0.352778,0.35277 -0.352778,-0.35277 m 17.286111,0 0.35278,0.35277 -0.35278,-0.35277 m 7.64352,0.11759 0.23519,0.11759 -0.23519,-0.11759 m 17.4037,-0.11759 0.35278,0.35277 -0.35278,-0.35277 m -55.974073,0.58796 0.117596,0.23519 -0.117596,-0.23519 m 14.346298,-0.23519 0.352778,0.35278 -0.352778,-0.35278 m 11.994444,0 0.352778,0.35278 -0.352778,-0.35278 m 5.291671,0 0.35277,0.35278 -0.35277,-0.35278 m 23.63611,0 0.35278,0.35278 -0.35278,-0.35278 m -52.211114,0.35278 0.352778,0.35278 -0.352778,-0.35278 m 5.291667,0 v 0.35278 l 2.469444,1.05833 v -0.35277 l -2.469444,-1.05834 m 6.702777,0 0.352778,0.35278 -0.352778,-0.35278 m 18.10926,0.23518 0.11759,0.2352 -0.11759,-0.2352 m 3.41019,-0.23518 0.35277,0.35278 -0.35277,-0.35278 m 0.70555,0 0.35278,0.35278 -0.35278,-0.35278 m 7.76111,0 0.35278,0.35278 -0.35278,-0.35278 m 9.525,0 0.35278,0.35278 -0.35278,-0.35278 m 5.99722,0.35278 v 0.35278 l 1.41112,-0.35278 h -1.41112 m -64.793517,0.23518 0.117597,0.23519 -0.117597,-0.23519 m 19.990743,-0.23518 0.352778,0.35278 -0.352778,-0.35278 m 10.348146,0.23518 0.117597,0.23519 -0.117597,-0.23519 m 18.226858,-0.23518 0.35277,0.35278 -0.35277,-0.35278 m 9.525,0 0.35277,0.35278 -0.35277,-0.35278 m 15.16944,0 0.35278,0.35278 -0.35278,-0.35278 m 4.70371,0.23518 0.11758,0.23519 -0.11758,-0.23519 m -73.495376,0.1176 0.352778,0.35278 -0.352778,-0.35278 m 43.391666,0 0.35278,0.35278 -0.35278,-0.35278 m 9.525,0 0.35278,0.35278 -0.35278,-0.35278 m 6.70278,0 0.35278,0.35278 -0.35278,-0.35278 m -56.444446,0.35278 0.352778,0.35277 -0.352778,-0.35277 m 39.511116,0 0.35277,0.35277 -0.35277,-0.35277 m 16.22777,0 0.35278,0.35277 -0.35278,-0.35277 m -63.14722,0.35277 0.352778,0.35278 -0.352778,-0.35278 m 15.169445,0 0.352778,0.35278 -0.352778,-0.35278 m 14.463889,0 0.352778,0.35278 -0.352778,-0.35278 m 6.349996,0 0.35278,0.35278 -0.35278,-0.35278 m 10.23056,0 0.35278,0.35278 -0.35278,-0.35278 m 16.11018,0.1176 0.23519,0.11759 -0.23519,-0.11759 m 7.17315,-0.1176 0.35278,0.35278 -0.35278,-0.35278 m 7.76111,0 0.35278,0.35278 -0.35278,-0.35278 m -69.497218,0.35278 0.352777,0.35278 -0.352777,-0.35278 m 8.113888,0 0.352778,0.35278 -0.352778,-0.35278 m 9.172223,0 0.352778,0.35278 -0.352778,-0.35278 m 11.641667,0 0.35278,0.35278 -0.35278,-0.35278 m 8.81944,0 0.35278,0.35278 -0.35278,-0.35278 m 15.875,0 0.35278,0.35278 -0.35278,-0.35278 m -60.912961,0.58796 0.117596,0.23519 -0.117596,-0.23519 m 16.345374,-0.11758 0.235182,0.11758 -0.235182,-0.11758 m 27.987037,-0.1176 0.35278,0.35278 -0.35278,-0.35278 m 9.525,0 -0.70556,0.35278 v 0.35277 l 0.70556,-0.70555 m 6.35,0 0.35278,0.35278 -0.35278,-0.35278 m 16.34537,0.23518 0.11759,0.23519 -0.11759,-0.23519 m -72.084261,0.1176 0.352778,0.35277 -0.352778,-0.35277 m 12.7,0 0.352778,0.35277 -0.352778,-0.35277 m 7.173147,0.23518 0.117596,0.23519 -0.117596,-0.23519 m 4.46852,-0.23518 0.352778,0.35277 -0.352778,-0.35277 m 14.699074,0.11759 0.23519,0.11759 -0.23519,-0.11759 m 14.58148,0.58796 v 0.35278 l 1.76389,-0.70556 -1.76389,0.35278 m -40.216665,-0.35278 0.352778,0.35278 -0.352778,-0.35278 m 13.993525,0.1176 0.23518,0.11759 -0.23518,-0.11759 m 10.70092,-0.1176 0.35278,0.35278 -0.35278,-0.35278 m 9.87778,0 0.35278,0.35278 -0.35278,-0.35278 m -52.211114,0.35278 0.352778,1.41111 h 0.352778 l -0.705556,-1.41111 m 32.455554,0 0.35278,0.35278 -0.35278,-0.35278 m 19.05,0 0.35278,0.35278 -0.35278,-0.35278 m 24.45926,0.23518 0.11759,0.2352 -0.11759,-0.2352 m -52.211112,0.35278 0.117596,0.23519 -0.117596,-0.23519 m 27.046302,-0.23518 0.35277,0.35278 -0.35277,-0.35278 m -0.70556,0.35278 0.35278,0.35278 -0.35278,-0.35278 m 6.35,0 0.35278,1.41111 h 0.35278 l -0.70556,-1.41111 m -44.097222,0.35278 0.352778,0.35277 -0.352778,-0.35277 m 7.761111,0 -0.352777,1.05833 h 0.352777 v -1.05833 m 15.169441,0 0.35278,0.35277 -0.35278,-0.35277 m 14.11112,0 0.35277,0.35277 -0.35277,-0.35277 m 18.34444,0 0.35278,0.35277 -0.35278,-0.35277 m -54.680556,0.35277 0.352778,0.35278 -0.352778,-0.35278 m 10.348146,0.23519 0.117596,0.23519 -0.117596,-0.23519 m 25.28241,-0.23519 0.35278,0.35278 -0.35278,-0.35278 m 14.46389,0 0.35278,0.35278 -0.35278,-0.35278 m -62.441668,0.35278 0.352777,0.35278 -0.352777,-0.35278 m 37.747218,0 0.35278,0.35278 -0.35278,-0.35278 m 9.525,0 0.35278,0.35278 -0.35278,-0.35278 m 19.52038,0.23518 0.11758,0.2352 -0.11758,-0.2352 m 3.0574,-0.23518 0.35278,0.35278 -0.35278,-0.35278 m 4.58611,0 0.35278,0.35278 -0.35278,-0.35278 m -69.849997,0.35278 0.352777,0.35278 -0.352777,-0.35278 m 6.702777,0 0.705556,0.70555 -0.705556,-0.70555 m 2.116667,0 0.352778,0.35278 -0.352778,-0.35278 m 15.875,0 0.352778,0.35278 -0.352778,-0.35278 m 7.761113,0 0.35278,0.35278 -0.35278,-0.35278 m 9.525,0 0.35278,0.35278 -0.35278,-0.35278 m 5.64444,0 0.35278,1.05833 h 0.35278 v -1.05833 h -0.70556 m 9.17223,0 0.35277,0.35278 -0.35277,-0.35278 m -53.622227,0.35278 0.352777,0.35277 -0.352777,-0.35277 m 10.936111,0 0.352778,0.35277 -0.352778,-0.35277 m 3.645368,0.23518 0.117597,0.23519 -0.117597,-0.23519 m 23.518518,-0.23518 0.35278,0.35277 -0.35278,-0.35277 m 5.52685,0.11759 0.23519,0.11759 z"
         id="path18137" /><path
         style="fill:#032136;stroke:none"
         d="m 125.42914,116.54599 1.05833,3.52778 5.64445,-2.82223 -2.11667,7.05556 3.88056,1.05833 4.93888,-15.16944 z"
         id="path18136" /><path
         style="fill:#7f8287;stroke:none"
         d="m 146.59581,109.84321 0.35277,0.35278 -0.35277,-0.35278 m -79.96297,0.58796 0.117596,0.23519 -0.117596,-0.23519 m 8.701854,-0.23518 0.352778,0.35278 -0.352778,-0.35278 m 6.585187,0.11759 0.235181,0.11759 -0.235181,-0.11759 m 17.168515,0.11759 0.117596,0.23519 -0.117596,-0.23519 m 2.822224,0 0.11759,0.23519 -0.11759,-0.23519 m 3.88055,0 0.1176,0.23519 -0.1176,-0.23519 m 11.1713,-0.23518 0.35278,0.35278 -0.35278,-0.35278 m 14.46389,0 0.35278,0.35278 z"
         id="path18135" /><path
         style="fill:#032136;stroke:none"
         d="m 138.83469,109.84321 0.35278,0.35278 z"
         id="path18134" /><path
         style="fill:#7f8287;stroke:none"
         d="m 80.979138,109.84321 0.352778,0.35278 -0.352778,-0.35278 m 9.525,0 0.352778,0.35278 -0.352778,-0.35278 m 20.931482,0.23518 0.11759,0.23519 -0.11759,-0.23519 m 2.82223,0 0.11758,0.23519 -0.11758,-0.23519 m 3.41018,-0.23518 0.35278,0.35278 -0.35278,-0.35278 m 14.46389,0 0.35277,0.35278 z"
         id="path18133" /><path
         style="fill:#032136;stroke:none"
         d="m 74.27636,109.84321 5.644445,15.52222 3.527778,-1.05833 -2.469445,-7.40833 6.702778,3.88055 1.058333,-3.88055 z"
         id="path18132" /><path
         style="fill:#7f8287;stroke:none"
         d="m 80.273583,109.49043 0.352777,0.35278 -0.352777,-0.35278 m 9.525,0 0.352778,0.35278 -0.352778,-0.35278 m 4.938889,0 0.352777,0.35278 -0.352777,-0.35278 m 12.817598,0.23518 0.11758,0.2352 -0.11758,-0.2352 m 15.7574,-0.23518 0.35278,0.35278 -0.35278,-0.35278 m 15.52222,0 -0.35277,0.35278 0.35277,1.05833 h 0.35278 l 0.35278,-1.05833 z"
         id="path18131" /><path
         style="fill:#032136;stroke:none"
         d="m 73.923583,109.49043 0.352777,0.35278 z"
         id="path18130" /><path
         style="fill:#7f8287;stroke:none"
         d="m 150.82914,98.554321 0.35278,0.352778 -0.35278,-0.352778 m -52.4463,0.58796 0.117596,0.235192 -0.117596,-0.235192 m 8.70185,0.117596 0.35278,0.352778 -0.35278,-0.352778 m 43.50927,0.235182 0.11758,0.235192 -0.11758,-0.235192 m -52.563898,0.705551 0.117597,0.2352 -0.117597,-0.2352 m -35.277777,0.35278 0.117596,0.23519 -0.117596,-0.23519 m 42.921295,-0.23518 0.35278,0.35278 -0.35278,-0.35278 m 1.76389,0 0.35278,0.35278 -0.35278,-0.35278 m 7.76111,0 0.35278,0.35278 -0.35278,-0.35278 m 34.925,0 0.35278,0.35278 -0.35278,-0.35278 m -77.611108,0.70556 0.352777,0.35277 -0.352777,-0.35277 m 25.047222,0 0.352778,0.35277 -0.352778,-0.35277 m 18.109266,0.23518 0.11758,0.23519 -0.11758,-0.23519 m -52.681488,0.11759 0.352777,0.35278 -0.352777,-0.35278 m 76.552778,0 0.35278,0.35278 -0.35278,-0.35278 m -65.26389,0.35278 0.352778,0.35278 -0.352778,-0.35278 m 23.048147,0.23518 0.117596,0.2352 -0.117596,-0.2352 m 41.510183,-0.23518 0.35278,0.35278 -0.35278,-0.35278 m -75.37685,0.58796 0.117596,0.23519 -0.117596,-0.23519 m 11.524076,-0.23518 0.352778,0.35278 -0.352778,-0.35278 m 26.811114,0 0.35278,0.35278 -0.35278,-0.35278 m 9.525,0 0.35278,0.35278 -0.35278,-0.35278 m 4.7037,0.23518 0.11759,0.23519 -0.11759,-0.23519 m 22.10741,-0.23518 0.35278,0.35278 -0.35278,-0.35278 m 11.28889,0 0.35278,0.35278 -0.35278,-0.35278 m -73.730558,0.35278 0.352777,0.35277 -0.352777,-0.35277 m 61.736108,0 0.35278,0.35277 -0.35278,-0.35277 m -61.030553,0.35277 0.352778,0.35278 -0.352778,-0.35278 m 60.325003,0 0.35278,0.35278 -0.35278,-0.35278 m -73.025003,0.35278 0.352778,0.35278 -0.352778,-0.35278 m 13.405556,0 0.352777,0.35278 -0.352777,-0.35278 m 19.873146,0.23518 0.117596,0.2352 -0.117596,-0.2352 m 4.468521,-0.23518 0.35278,0.35278 -0.35278,-0.35278 m 14.93426,0.23518 0.11759,0.2352 -0.11759,-0.2352 m 19.63796,-0.23518 0.35278,0.35278 -0.35278,-0.35278 m -58.208332,0.35278 0.352778,0.35278 -0.352778,-0.35278 m 57.502782,0 0.35277,0.35278 -0.35277,-0.35278 m -56.797226,0.35278 0.352778,0.35278 -0.352778,-0.35278 m 22.695366,0.23518 0.1176,0.23519 -0.1176,-0.23519 m 3.05741,-0.23518 0.35278,0.35278 -0.35278,-0.35278 m 30.33889,0 0.35278,0.35278 -0.35278,-0.35278 m -64.911111,0.35278 0.352778,0.35277 -0.352778,-0.35277 m 26.928702,0.23518 0.117597,0.23519 -0.117597,-0.23519 m 20.108339,0 0.11759,0.23519 -0.11759,-0.23519 m 17.16852,-0.23518 0.35277,0.35277 -0.35277,-0.35277 m 9.525,0 0.35277,0.35277 -0.35277,-0.35277 m -73.025005,0.35277 0.352778,0.35278 -0.352778,-0.35278 m 33.631475,0.23519 0.1176,0.23519 -0.1176,-0.23519 m 38.68797,-0.23519 0.35278,0.35278 -0.35278,-0.35278 m 1.41111,0 0.35278,0.35278 -0.35278,-0.35278 m -75.024075,0.58796 0.117596,0.2352 -0.117596,-0.2352 m 1.999075,-0.23518 0.352778,0.35278 -0.352778,-0.35278 m 29.75092,0.23518 0.1176,0.2352 -0.1176,-0.2352 m 11.52408,-0.23518 0.35278,0.35278 -0.35278,-0.35278 m 29.51574,0.1176 0.23519,0.11758 -0.23519,-0.11758 m 6.46759,-0.1176 0.35278,0.35278 -0.35278,-0.35278 m -76.552774,0.35278 0.352778,0.35278 -0.352778,-0.35278 m 24.459258,0.23518 0.117596,0.23519 -0.117596,-0.23519 m 12.935186,-0.23518 0.35278,0.35278 -0.35278,-0.35278 m 7.87871,0.23518 0.11758,0.23519 -0.11758,-0.23519 m 23.87129,-0.23518 0.35278,0.35278 -0.35278,-0.35278 m 2.82222,0 0.35278,0.35278 -0.35278,-0.35278 m -71.261108,0.35278 0.352777,0.35277 -0.352777,-0.35277 m 31.044448,0 0.35277,0.35277 -0.35277,-0.35277 m 9.28981,0.23518 0.11759,0.23519 -0.11759,-0.23519 m 27.39908,-0.23518 0.35277,0.35277 -0.35277,-0.35277 m -70.908338,0.35277 0.352777,0.35278 -0.352777,-0.35278 m 3.880555,0 0.352778,0.35278 -0.352778,-0.35278 m 27.281483,0.23519 0.11759,0.23519 -0.11759,-0.23519 m 9.05463,-0.23519 0.35278,0.35278 -0.35278,-0.35278 m 29.98611,0 0.35278,0.35278 -0.35278,-0.35278 m 3.99815,0.23519 0.11759,0.23519 -0.11759,-0.23519 m 4.46852,-0.23519 0.35277,0.35278 -0.35277,-0.35278 m -74.083337,0.35278 v 0.35278 l 1.411111,0.35278 v -0.35278 l -1.411111,-0.35278 m 29.398147,0.23518 0.1176,0.2352 -0.1176,-0.2352 m 14.11112,0 0.11758,0.2352 -0.11758,-0.2352 m 21.40184,-0.23518 -0.35277,0.70556 0.35277,-0.70556 m -73.730552,0.35278 0.352778,0.35278 -0.352778,-0.35278 m 4.703702,0.23518 0.117596,0.23519 -0.117596,-0.23519 m 14.346298,-0.23518 0.352778,0.35278 -0.352778,-0.35278 m 11.759258,0.23518 0.117596,0.23519 -0.117596,-0.23519 m 13.993524,-0.23518 0.35277,0.35278 -0.35277,-0.35278 m 3.175,0 0.35277,0.35278 -0.35277,-0.35278 m 34.57222,0 0.35278,0.35278 -0.35278,-0.35278 m -62.794446,0.35278 0.352778,0.35278 -0.352778,-0.35278 m 15.287036,0.23518 0.1176,0.23519 -0.1176,-0.23519 m 28.45741,-0.23518 0.35278,0.35278 -0.35278,-0.35278 m 14.58148,0.23518 0.11759,0.23519 -0.11759,-0.23519 m -57.620371,0.1176 0.352778,0.35277 -0.352778,-0.35277 m 17.286111,0 0.35278,0.35277 -0.35278,-0.35277 m 7.40833,0 0.35278,1.41111 h 0.35278 l -0.70556,-1.41111 m 7.52593,0.23518 0.11759,0.23519 -0.11759,-0.23519 m 9.76019,-0.23518 0.35277,0.35277 -0.35277,-0.35277 m -62.088894,0.35277 0.352778,0.35278 -0.352778,-0.35278 m 4.586111,0 0.352778,1.41111 h 0.352778 l -0.705556,-1.41111 m 16.227778,0 0.352778,0.35278 -0.352778,-0.35278 m 9.172222,0 0.352778,0.35278 -0.352778,-0.35278 m 17.991663,0 0.35278,0.35278 -0.35278,-0.35278 m 13.40556,0 0.35278,0.35278 -0.35278,-0.35278 m 20.46111,0 0.35278,0.35278 -0.35278,-0.35278 m -60.325,0.35278 0.352778,0.35278 -0.352778,-0.35278 m 12.817591,0.23518 0.117597,0.2352 -0.117597,-0.2352 m 2.822219,0 0.1176,0.2352 -0.1176,-0.2352 m 23.51852,-0.23518 0.35278,0.35278 -0.35278,-0.35278 m 16.69816,0.23518 0.11758,0.2352 -0.11758,-0.2352 m -77.023156,0.1176 0.352778,0.35278 -0.352778,-0.35278 m 21.872222,0 0.352778,0.35278 -0.352778,-0.35278 m 18.344444,0 v 1.05833 h 0.35278 l -0.35278,-1.05833 m 1.05833,0 0.35278,0.35278 -0.35278,-0.35278 m 10.93612,0 0.35277,0.35278 -0.35277,-0.35278 m 7.40833,0 0.35278,0.35278 -0.35278,-0.35278 m -37.041668,0.35278 0.352777,0.35277 -0.352777,-0.35277 m 6.702777,0 0.352778,0.35277 -0.352778,-0.35277 m 18.814821,0.23518 0.11758,0.23519 -0.11758,-0.23519 m 10.81851,-0.23518 0.35278,0.35277 -0.35278,-0.35277 m 22.3426,0.23518 0.11758,0.23519 -0.11758,-0.23519 m -73.495375,0.11759 0.352778,1.41112 h 0.352777 l 0.352778,-1.05834 -1.058333,-0.35278 m 5.997222,0 0.352778,0.35278 -0.352778,-0.35278 m 9.525,0 0.352778,0.35278 -0.352778,-0.35278 m 10.348147,0.23519 0.117596,0.23519 -0.117596,-0.23519 m 2.822226,0 0.11759,0.23519 -0.11759,-0.23519 m 8.70185,-0.23519 0.35278,0.35278 -0.35278,-0.35278 m 7.52593,0.23519 0.11758,0.23519 -0.11758,-0.23519 m 5.52685,-0.23519 0.35278,0.35278 -0.35278,-0.35278 m 9.525,0 -0.70556,0.35278 v 0.35278 l 0.70556,-0.70556 m 8.93704,0.23519 0.11758,0.23519 -0.11758,-0.23519 m -76.317598,0.11759 0.352777,0.35278 -0.352777,-0.35278 m 4.703701,0.23518 0.117597,0.2352 z"
         id="path18129" /><path
         style="fill:#032136;stroke:none"
         d="m 106.37914,98.554321 -4.58611,13.052779 3.175,1.76389 1.41111,-5.29167 h 0.70555 l 1.76389,4.93889 3.175,-1.41111 -4.93889,-13.052779 z"
         id="path18128" /><path
         style="fill:#7f8287;stroke:none"
         d="m 109.31896,96.320058 0.11758,0.235193 -0.11758,-0.235193 m 40.80462,-0.235181 0.35278,0.352778 -0.35278,-0.352778 m -50.799997,0.352778 0.352778,0.352777 -0.352778,-0.352777 m 4.703697,0.235181 0.1176,0.235193 -0.1176,-0.235193 m 45.39075,-0.235181 0.35278,0.352777 -0.35278,-0.352777 m 2.23426,0.235181 0.11759,0.235193 -0.11759,-0.235193 m -90.428707,0.117596 0.352777,0.352778 -0.352777,-0.352778 m 87.488887,0 0.35278,0.352778 -0.35278,-0.352778 m -39.04074,0.58796 0.11759,0.235192 -0.11759,-0.235192 m 38.33519,-0.235182 0.35277,0.352778 -0.35277,-0.352778 m -86.312966,0.58796 0.117591,0.235192 -0.117591,-0.235192 m 52.446296,-0.235182 0.35278,0.352778 -0.35278,-0.352778 m 33.16111,0 0.35278,0.352778 -0.35278,-0.352778 m 3.99815,0.235182 0.11759,0.235192 -0.11759,-0.235192 m -84.784261,0.117596 0.352778,0.352778 -0.352778,-0.352778 m 39.863891,0 v 0.705555 h 0.70555 v -0.705555 h -0.70555 m 40.21667,0 0.35277,0.352778 -0.35277,-0.352778 m -47.977783,0.352778 0.352778,0.352777 -0.352778,-0.352777 m 11.288893,0 0.35277,1.411111 h 0.35278 l -0.70555,-1.411111 m -47.977782,0.352777 0.352778,1.411111 h 0.352778 z"
         id="path18127" /><path
         style="fill:#032136;stroke:none"
         d="m 99.676361,115.48765 c -0.332781,1.02307 -1.225259,2.65393 -0.812532,3.73275 0.999218,2.61186 7.914431,3.28479 9.984751,2.41283 8.42273,-3.54736 16.51995,-8.14265 24.69445,-12.2299 3.30169,-1.65085 7.17708,-4.71862 10.93611,-4.85179 -3.35204,6.3615 -6.13859,14.50605 -7.76111,21.51945 l 3.88055,1.05833 11.28889,-31.397221 c -4.02606,1.159824 -7.89772,3.685359 -11.64166,5.557341 l -21.51945,10.75754 c -3.24771,1.62386 -8.59576,5.58857 -12.19751,5.79252 -1.98968,0.11267 -4.92775,-1.72556 -6.852489,-2.35185 z"
         id="path18126" /><path
         style="fill:#7f8287;stroke:none"
         d="m 99.676361,95.379321 0.352779,0.352778 -0.352779,-0.352778 m 4.703699,0.235182 0.1176,0.235192 -0.1176,-0.235192 m 47.15463,-0.235182 0.70556,0.705556 v -0.705556 h -0.70556 m -90.663885,0.352778 0.352778,0.352778 -0.352778,-0.352778 m 1.411111,0 v 0.352778 l 3.880556,1.763889 v -0.352778 l -3.880556,-1.763889 m 51.152774,0 0.35278,0.352778 -0.35278,-0.352778 m 37.39445,0 0.35278,0.352778 z"
         id="path18125" /><path
         style="fill:#032136;stroke:none"
         d="m 60.870805,95.379321 12.841001,33.161109 3.848436,9.17222 1.822143,4.23334 -4.400469,8.11389 4.233333,1.76389 c 1.42304,-2.32468 4.355861,-5.73802 4.687645,-8.46667 0.30165,-2.48086 -2.405177,-6.14376 -3.257752,-8.46667 -2.465068,-6.7163 -5.060259,-13.4883 -7.783704,-20.10833 -1.281279,-3.11447 -3.74969,-7.16347 -3.523966,-10.58333 l 21.519444,10.23055 1.058333,-3.88055 C 81.785635,105.7489 71.537617,98.754837 60.870805,95.379321 Z"
         id="path18124" /><path
         style="fill:#7f8287;stroke:none"
         d="m 107.08469,78.445988 0.35278,0.352778 -0.35278,-0.352778 m -2.70463,4.115737 0.1176,0.235192 -0.1176,-0.235192 m -0.35278,1.058333 0.1176,0.235193 -0.1176,-0.235193 m 5.17408,0.470374 0.35278,0.352778 -0.35278,-0.352778 m -5.64444,0.352778 -0.35278,1.411111 h 0.35278 V 84.44321 m 5.99722,0.352778 0.35278,0.352778 -0.35278,-0.352778 m 0.47037,0.940737 0.11759,0.235192 -0.11759,-0.235192 m -7.05556,0.705556 0.1176,0.235192 -0.1176,-0.235192 m 7.40834,0.352777 0.11759,0.235193 -0.11759,-0.235193 m -7.76112,0.705556 0.1176,0.235192 -0.1176,-0.235192 m 8.1139,0.352778 0.11758,0.235192 -0.11758,-0.235192 m -8.46667,0.705555 0.11759,0.235193 -0.11759,-0.235193 m 8.81945,0.352778 0.11758,0.235192 -0.11758,-0.235192 m -9.17223,0.705556 0.11759,0.235192 -0.11759,-0.235192 m 9.525,0.352777 0.11759,0.235193 -0.11759,-0.235193 m -5.40926,0.117597 0.35278,0.352777 -0.35278,-0.352777 m 1.05833,0 0.35278,0.352777 -0.35278,-0.352777 m -5.52685,0.587959 0.1176,0.235192 -0.1176,-0.235192 m 10.23056,0.352778 0.11759,0.235192 -0.11759,-0.235192 m -5.99723,0.352778 0.1176,0.235192 -0.1176,-0.235192 m 1.6463,-0.235182 0.35278,1.411111 h 0.35278 l -0.70556,-1.411111 m -6.35,0.352778 0.35278,0.352778 -0.35278,-0.352778 m 10.93611,0.352778 0.35278,0.352777 -0.35278,-0.352777 m -6.58518,0.587959 0.11759,0.235192 -0.11759,-0.235192 m -4.70371,0.117596 0.35278,0.352778 -0.35278,-0.352778 m 11.75927,0.235182 0.11758,0.235192 -0.11758,-0.235192 m -4.23334,0.352777 0.11759,0.235193 -0.11759,-0.235193 m -3.175,0.352778 0.11759,0.235193 -0.11759,-0.235193 m 7.76111,0.352778 0.11759,0.235192 -0.11759,-0.235192 m -4.23333,0.352778 0.11759,0.235192 -0.11759,-0.235192 m -3.88056,0.352778 0.1176,0.235192 -0.1176,-0.235192 m 8.34908,0.117596 0.35277,0.352778 -0.35277,-0.352778 m -4.11574,0.587959 0.11758,0.235193 z"
         id="path18123" /><path
         style="fill:#032136;stroke:none"
         d="m 106.37914,77.387655 c -4.49203,11.64453 -8.18163,23.593985 -12.550291,35.277775 -1.28326,3.43203 -1.862505,9.88648 -4.229247,12.59303 -1.632642,1.86706 -6.62908,2.03838 -8.973242,2.22364 l 1.058334,4.23333 c 2.645252,-0.34161 8.325536,-0.72135 10.384621,-2.44766 2.165587,-1.81561 2.898666,-7.62914 3.938536,-10.25234 3.800511,-9.58725 7.180179,-19.473443 10.371289,-29.280553 h 0.70555 l 7.76112,21.519443 3.52777,-1.41111 c -1.18426,-6.88201 -4.81084,-13.523485 -7.05447,-20.108333 -1.32737,-3.895725 -2.28601,-9.143607 -4.93997,-12.347222 z"
         id="path18122" /><path
         style="fill:#7f8287;stroke:none"
         d="m 106.37914,77.034877 0.35278,1.058333 h 0.35277 z"
         id="path18121" /></g></g></svg>
